<mxfile host="65bd71144e">
    <diagram id="ksue2Qe151VOTN78nA3m" name="第1頁">
        <mxGraphModel dx="630" dy="629" grid="1" gridSize="10" guides="1" tooltips="1" connect="1" arrows="1" fold="1" page="1" pageScale="1" pageWidth="827" pageHeight="1169" math="0" shadow="0">
            <root>
                <mxCell id="0"/>
                <mxCell id="1" parent="0"/>
                <mxCell id="3" value="Actor" style="shape=umlActor;verticalLabelPosition=bottom;verticalAlign=top;html=1;outlineConnect=0;" parent="1" vertex="1">
                    <mxGeometry x="60" y="120" width="30" height="60" as="geometry"/>
                </mxCell>
                <mxCell id="13" value="" style="edgeStyle=none;html=1;entryX=0.5;entryY=0;entryDx=0;entryDy=0;" parent="1" source="4" target="12" edge="1">
                    <mxGeometry relative="1" as="geometry"/>
                </mxCell>
                <mxCell id="4" value="plt-basic&lt;br&gt;&lt;span style=&quot;background-color: rgb(30, 31, 34); color: rgb(169, 183, 198); font-family: &amp;quot;JetBrains Mono&amp;quot;, monospace; font-size: 9.8pt;&quot;&gt;GcpCustomProperties&lt;/span&gt;&lt;br&gt;組成csv&lt;br&gt;上傳ＧＣＰ" style="rounded=0;whiteSpace=wrap;html=1;" parent="1" vertex="1">
                    <mxGeometry x="270" y="80" width="170" height="160" as="geometry"/>
                </mxCell>
                <mxCell id="7" value="" style="endArrow=classic;html=1;" parent="1" edge="1">
                    <mxGeometry width="50" height="50" relative="1" as="geometry">
                        <mxPoint x="110" y="120" as="sourcePoint"/>
                        <mxPoint x="260" y="120" as="targetPoint"/>
                    </mxGeometry>
                </mxCell>
                <mxCell id="8" value="" style="endArrow=classic;html=1;" parent="1" edge="1">
                    <mxGeometry width="50" height="50" relative="1" as="geometry">
                        <mxPoint x="255" y="200" as="sourcePoint"/>
                        <mxPoint x="110" y="200" as="targetPoint"/>
                    </mxGeometry>
                </mxCell>
                <mxCell id="9" value="&lt;div style=&quot;color: rgb(212, 212, 212); background-color: rgb(30, 30, 30); font-family: Menlo, Monaco, &amp;quot;Courier New&amp;quot;, monospace; line-height: 18px;&quot;&gt;用戶查詢報表&lt;/div&gt;" style="text;html=1;strokeColor=none;fillColor=none;align=center;verticalAlign=middle;whiteSpace=wrap;rounded=0;" parent="1" vertex="1">
                    <mxGeometry x="120" y="80" width="120" height="30" as="geometry"/>
                </mxCell>
                <mxCell id="11" value="&lt;div style=&quot;color: rgb(212, 212, 212); background-color: rgb(30, 30, 30); font-family: Menlo, Monaco, &amp;quot;Courier New&amp;quot;, monospace; line-height: 18px;&quot;&gt;報表下載中心&lt;/div&gt;" style="text;html=1;strokeColor=none;fillColor=none;align=center;verticalAlign=middle;whiteSpace=wrap;rounded=0;" parent="1" vertex="1">
                    <mxGeometry x="140" y="210" width="80" height="30" as="geometry"/>
                </mxCell>
                <mxCell id="12" value="1.開通&lt;br&gt;2.key&lt;br&gt;3.規劃路路徑" style="whiteSpace=wrap;html=1;rounded=0;align=left;horizontal=1;verticalAlign=top;" parent="1" vertex="1">
                    <mxGeometry x="282.5" y="320" width="145" height="70" as="geometry"/>
                </mxCell>
                <mxCell id="14" value="&lt;div style=&quot;color: rgb(212, 212, 212); background-color: rgb(30, 30, 30); font-family: Menlo, Monaco, &amp;quot;Courier New&amp;quot;, monospace; line-height: 18px;&quot;&gt;gcp cloud storeage bucket &lt;/div&gt;" style="text;html=1;strokeColor=none;fillColor=none;align=center;verticalAlign=middle;whiteSpace=wrap;rounded=0;" parent="1" vertex="1">
                    <mxGeometry x="250" y="270" width="220" height="20" as="geometry"/>
                </mxCell>
                <mxCell id="17" value="plt-account" style="rounded=1;whiteSpace=wrap;html=1;" parent="1" vertex="1">
                    <mxGeometry x="540" y="50" width="120" height="60" as="geometry"/>
                </mxCell>
                <mxCell id="18" value="plt-report" style="rounded=1;whiteSpace=wrap;html=1;" parent="1" vertex="1">
                    <mxGeometry x="540" y="130" width="120" height="60" as="geometry"/>
                </mxCell>
                <mxCell id="19" value="plt-xxx" style="rounded=1;whiteSpace=wrap;html=1;" parent="1" vertex="1">
                    <mxGeometry x="540" y="200" width="120" height="60" as="geometry"/>
                </mxCell>
                <mxCell id="20" value="" style="shape=image;imageAspect=0;aspect=fixed;verticalLabelPosition=bottom;verticalAlign=top;image=data:image/png,iVBORw0KGgoAAAANSUhEUgAAAggAAABsCAYAAAAPBkoGAAAAAXNSR0IArs4c6QAAIABJREFUeF7svQe4XVd1Lvqv3U8v0pGOepcsd8vCtlwwxjQDNmBDCMZAaCEhlBRy891cSkgj9yXAvYkTCI8SCKETG4MxtsG9d1u2kSVZklWP2ullt7XW+8Ycc8w51tp7H0kG8u73vic+rKOz115rjjHH+Mc/xhxzriCO4xi/oT/Nbh0E9DDzH/5DT1f/nG0odL+ALp7l+hgxojBCPQwRRhGiOEIQZMzf8ofGQHcyD09IHwNBJjEm/SjzHXO/AEYOvhG8BmMYmc2tM0Ywe4kaMklAozSfmmvpZ7qa/kHjNHIGAaamppDPZlEolRBFEYJMJim61V25UkZUD1Fqa0MmkzHjyZpbJ+9nPouAOIiByI4zpUx6Lt1ARmimKI6RyQTmbzcHdupEAaRjGk4cR6jV68jnckbvrGkaTAYBPdepnBVvRKDf0SVqOuzsOAOhYbnfkf71fcx3SatArV5DLkvPTk4vjYvGEUYhcjQ20o3RuJ0zqwc2Tzvr5h5pG7FWJNc4A6b7aOsVO+CBsF5T5qYu937hbdzcT+Sm2znfsXqUB9q55jmDmVtjqwHfS4blZROZ/QAyQcb4SxiGyOfyPP8038bW6T5soUYCI5J4hr27/GXsnz/zV9i5diYnM2ksQ7kge2XSwT1AsK3wmGQ+k+Bl9RKQP2mD8cOl3/MdrY5kUtjsnY7NfNnBOTmMX/Cv+Xdp8Er+20kp93ZPbpRQ/IwxQ/uJV7fgRUJH9pHiR6J0J6NRkNaSBRw3uFYy6Hm1zum9MSW6sjCjQ7FE0bX1I2uTbNSsFIeP5L/WXs2U2GGm44FgZ4wIceS/b8xS+22j5Ss9kCbZntnHGv3Ea8zaJAO+xUYelbdi5W/WL4wGFC6lbUnPio8xMmv8aSpSnJCfON/V3/Ku6UbPHuj/aKyw/iYoI4aSNpikLSTAZtb4rgFTu5UNzQQ8HnIaYMGBkRLA4WFSprQNGZVQQKVgQETBubILmn76TZAwxAMIrQL97f0IPcCzUXJESz6agyf9yXDEj8nZPZQIAnHc4fCU0IFydrqWQFsIBH/HDlBFIgcaNsqaIA4iCORw9v42YBjgsZaaIDVuJKwXGZWF9RQMslt43NF2I9/24+TrhFDx58adTEC3REQBs4JtOw4FbjbAZkg2mVXzQxMAE+/nqGiInWZrnryqOaZJczpiwOH50wBrA4khFnZO5BECStY2PEwquTXIyn2NXD5oO7hSsrmZCQJkbMAxxM3gVpK80bUin8VhtrOEveoAau9uQZADlLrYPoMFtqBvgwDbpZ1faxdMYx1dSZEAS5rNIBmcPabYZwrJtoCsx534SBzb3scbqmJV1kWFKGWsX4r9eKLI6uE0whI6R1fs1axY9pEEG/ShwvESl2tIIBTZrMyKZxl1G/Ltn83o4Mkz+wzxbE48OKgJqVEoYpUpOo3YSD2hVvadBk5v6exoZPsypgTpS5lHIwCz/hgZ7H+VbIJLjrwK2/dswdqEJ5BCDPyzKJHyZMpjgCUfwvOd62ofpu+xHiUZExQTy5V/0zUmyXSAFyBgp7NEzo+spS3ZcC8owDJocpzEF1ZZKrgIvruES2Ap9V17Z5r3ZrJFVrOEoWp2UlPIshlf8xUErxJPCXzW3exTGwXVzS3DcsFff6vBjNxjXNwTDHNfkx+a36fhMvsI/S1TORCFu+w+tgk0/d1IZDh5YENz0+9RLMG+dKatjdjMZ8ZmuppLiHO5gOVqGQ7BDVAJWaHxSUSwUOsdmaodNvAJsDmXFBCzV5upEXkYCp2DivGrrJjJiQ2YygYdFjfJcsTwGWY19dGOrsKt04WfMQ0r7EcqgJssw95ZOEiKpEpGwATeEwldNRJgFY4hEcwBmir7NFiec15JhzXN8wZoAN/guI0UFtCZt7BMUnUxAC45Q4qPOM3oGOQCMgcUHpKfZw5gVnZLJnhkrDQObkqvlj04AmoINgUVoWs+W0p6sS/9uGFr4mxIKpNBDpzWQ6wfelvy1SNdmPFVJasdK4vU0ZxKRBSrb66eePhj0a0sJvZR9mklcePy/7bJn+XzKlRI0CS30PidgikGVvtMVz1IWbaxMfFdCjqNpMyRIclHVLXSkX3rm17tKv1WerExyVVJHBSmeaO1ETfPzWQTM/e8PJlEWAdzCYp8qszO6UgKGpb8s+uJXbHJimxJX7SCu4qn0jdnfT4IW0MTH2MCaCvFatqTpMz7CT9fDdBWn9htpCxold3Kf21lhR1dyiO2QpcAItE8pwkUn0w8kmk1GC6hU1WBU3GA4of8oe+7grF5fICM+IPzE65ZqDIaI9JsSwxjyZppKsLz4E1GoQxF1xukKsOqU46mQIvlsPdxmaRmoElnTOk/JVAjkOlkqOG7ekwe21Ny6gmTwk9DTpkI7p5LJFiFeoLWiM6ZWzzaerfmqsY2G7I0LyEz3sbqT/LJAqLK4/nG/Ccxr2psSpGNOnX8SVloQxLussaE0ysw0PjrLb3xPg0aazqgxrEr/3FWkCYDKV7mFaK/3OJ5OoA4N2q4VknZBFiaWUP6Fo3+IKkn0zTGRk0ieHpNIt1MCdZoBKibxUFXBVIT48iVNRz6t4nBLURsprZWMVduI8M1uZ/gsp00fT/3s/yQ5ENmTBmXtXrCppDX+6oF5Jb2qCdJBzmt2yYu0Wxu0/aXunWiADTbtenvpabhhNyp+TjtMpiHiVSNbTYca/wsLYtTnVW6JkqCaYZ/ya18xHS/lMqZxjGHxi2WL8y1MdlGAgLtMoR6YCufT43JxR5NstSYzW1SdtIw51q2VgZh768TbVMpMImIeCY/SJImo1qpStjL9O+MKphwczEyUXmyT3rPV59nnSkhhN3FcQZhSNm5kt5mMfw8XQqVwkYygNsnS+7ksgwWzgskZbtkSYSjl2TFcme39mpL2Ik80q5d2+JAIsobKRSyJEvdLQKtoIYAg1WqKambifFmrNfYm4KN04JXdjPHaRYg2K7VarNdg1XDs8Hew7hkh+Z+yiHcbEpWa6tBfqlEr2qrNbxUdp8oIKSewTaV9AwfyKRcba3IVj4sv2UXsaVPBgGfFRMz9tm4nXlh39ZR0uu7SbhqFX4VhRdYUraUhjwnme0lScvmZ4H9wq/UaiTh8meqPn/cyBuZ7N1frp9DyaroqeGGSgV+ecXfyPtJ2pZsSdrKQ+RAFve8VKl1ZynxWiYqJiE2KZl82paY4LReouTlGmcqLpNM69JkZq6Mnox2xspN9UNglQiP9Wdq4WnlxBaGealPAqkt11rd8rzYDFVjSMOqJX+ol6ocJkhQSNbJ2JZs5dNYlhm/r3Py12Qgqriaqk5q8TQOKYn8tKhSf6NsUlWWoCvdH1Y2S9RcKLNYykm26seQypfTF2XfSX9pKDcIMXORWDCF+qG4Z8pOhZt8uiV94uR3QZYv9vEm3XM0e2KU9PNjuLHNLvgvOxKJs6pRS/zEjUnZUkhjTdhoIhooouCrgJ72Wcs1S1OyaN0AJsCST46ZPCAkA6B1bDNpVJ5jChbZUokrRFKQyPrHZM0k2HKOMBoS1FR3YkR1/lvW0bmKYwecod/7spu7jjRN31fYKY11xhWo/BeJEbK1mVK/ZYdBlsv+psQUEIxluP4iPVj2OrYG+tgiDd0zw2V567VeNkEjOzZhVWbtypZ02DS1QRNTtY0yiA3giQ1wQOH/uEUBpwrfXmXGYtoUbDDxUMjzFJKIVrZE7EsBD8mWtbKpuO3KcNrB9JgciNqGPzdwb9gks5NN5o14JUcpS9JkvcDLRulnnLXuIZcx7TTzRgQ1KZuDGBsZbNndK9PNm9GrARw7lxpoFJOjgKCXKVzK4kiTcmCZ2wSCC4FXdVRjXxQJQhuAPBXVvR+8NGEBTeaX176szuieaglIiU8/0rQbN1VNCBkLdmLqfgEtVAxYW6oHFaOJlGycgGjZ+GcTWIMAoQnUPKeub8QGLCebIvJi736BSpd12X/Ilsh03PKHSy8l6NkAadbALdAnIgEbuJl/a0tGj3IfVzXzYdFglfV7DkocvNiCk9m0y9gsJrjZNff1jbEuRKgSuTRQusRHbNeKJgGB+0C8bMYMpDzsb6zr0mxLlvBYDbgrNd64EriVTeOSNxKFSy7TJNlS+j5h2az9kL6tvlzjovMvXrKjErngsBmzXC/X2XkUH05kg5bEMW4qlmBtIGtszCapUgYX59dsKRHnjdclg5N8boaqsUaUppZinV9wY7fHGnuTFFHxvqvK8T40Gf2ZZQZLMri5V9Jl8iP6zMcfjo/SKKqhstlWA3vjhZ8ctQokQGYhhRkzOAkb9ZrycchSGOdQkimpOnKiaCaKEKFUpFKTksR7kwLwWl4izUgBsn4OjdsGfQmTiTRNrym5bnkd2AWIJIqnx61AVVcWhGtI7d+XRax1p+tNLvVNtvdrOW2AM6MT9JCs2jzP69BfY8ebIAz8O5cVWXEZ1G0WZR3QMS13a5VdSwTRTmTXy5n4iai+qU5wzdpxgx/7mGQrRg2A3KS6Q86hAdPOo1QPLJoYUJVwqEKxGSRXsZpkBS48sO0lWpRsY4/7vkd080gyuyyNzGT39LeeNwV4blcLByKi2aFOf819bZ4jAY3u79bVZb2dHV52yBBBkK4MYVEG1oKa9e1kKckHQ+9dHByJl/r+JB5acvePsSdlatKSKqTCrK+q9WZHWaUyI5iangOR12UI4m8yMnmo/n0ylpgKn1GKrUAquyWXIs0yRHCPgCECEvBtZksarqdIAxNOn+8bHTmslwDNc8IVBEumEoGK8ZF3AiTXmyWGsN35hENCE43U9J44CJIuf90LpTJfuY/LToXQpu5jEzXpe+DR2+RL4U5iTMcjmwsFVmcOpKRaIyAlmMv2yTTR85/UVTb8W/dNxQ5jVkJsdQB3AGQrCD6x9kvoco0Ltn6F28V3p3vpl0pXs4TgS0VCVa59a4LjaW4+FZbTI3JkIymyIv801bsMV/DomhwRrjhA3TTiG80lmufpe6FdbiC30Lly0wqC6G3uJ0c4cDRZKBFAFT+WCeMmYWOq/H+X+Qpc+KCVhitPM/zMpeOYT4gSqymNX7VAnghKQjXdbCoS4iib3Mo7p9xKBwQDGvY7YhNJSKJQIDDM2qCA7drmnI4kS+bMJxnS9fiaiOgCLpfL2HuchYJKCGaMWon2Y4uPTjQjjzVQWXJw1RIb3HwpvElQTjibKdv45hGXDVugtnpwdtWI5Y0MWvA/jQbpJhOnJioj2hvLumKCuEgnmTisU2ZSuFTcUSzHMv1mg7fZu5oyuiobh8ghQld7G/J5zv4l69IAQ9dKti+3cP0Edp7IsWgZwVxrwZoJTzLrpkllKhEgax7CSziR69cXMWx3vFgoVTiSNUprzDaA2ZzahjpF0CUYc/WQn8iZJefP9IftNZKtZu7btmkrsWypKiZqrjNU/fMR02taYon9WgpDVUlKzZuzKZZNNGFoJmX9dqeF4yqyzZm3RDSlrK46ZRQgfqwCnfNL1eijK1o6Y/SQZJVrx25u52dACB3rxT5LVZA8uKRktwRAIMSl1WnfaqrvlGya8evmtGaypXFJ2Zv+qnFBafJ1kOi7lKURVo+EiQTbHpfgPaMwv28im1R4WTu+gmdZicdR23grY5Lk2TzLVdRS/Ysahu2zG8S3Iza/VzZp/FD1TTCWSOVA5jlJPMj+aJnByBJTghFjphZjtFJHNYTZtk5/TJO++WoSK6UpoHmTovWEvk+NWAbsXMOaapJemaYOqwDukCbw4wAZGhCz8Ga+JsU6hg29HuYTfZmqJNvVpRdeg7TlmHRwcjdK5jB2bcODRIIUSMgX3s6Q5v7oyoKdCwIOGZObVGOHlofZDFyIAQOP22iicjBtKhoN1BZNxchV3FEmxaHC/yHWSN+3WYR1bqFVJlg4m6BAxUYihslbebzRedDUT2+Mpf5TPZbkd9htqSpln2pLW7oe1ZQaKSyVoelmJK3F2Cwh+d8YS7M35XVnCbnpsWk+1RBeElyr8Zv8G3qsmjlHJPKoo7+YRVdHCXVD3poAuV1fNxakANlYmgMNvx2PcY+9SDyKdcN3p++YuabqhXRSm+UHKTnyRZHp6uY5p/8aK2V0cWbgCKMEfGuTnPEm25FM3cL+0jQEWoLMIzM5uiUJ3E9ggpuGGYmBqtoqlR8eGhM8VyZOE2G5Z8IjrIW5adVW5rd2kd6JoEm8ohGzb7BWpf/B6CMNEWrc6iMfcFQUU8vJCVPSVuuYsgtoihA487ECJWBE2a4qRiqLs8aqCbJ82sInmsGUsg73rZbXad9SF6Vk0xjmB6nHdKKyObRoquem+nZX+mclAneDIpVsKX03x4kEnWmwUg0N4vvm+RYTpCooX2QZ/D19ZZOrqeRvtUwW45UQI9Nlp1azS0Kalq2a6DdELhhb6LQJbeVKMb1UQbCgwuPS5WSrENvUQR/T2g0bPYMDgaQcRsO3dft/bLZrg4gCPrmM1y25vG2g1IG99BAI4DuqqBgea5JXDjV0cmnFr6pY5HRGrgNCotCi6JlIIjmYStoFUE25NcPAbRJFCtJctgzs/ioKYBJEHEkS9ukmWoGmbZAxmESHKXEuaGfLmgv1fFgbYRm5guDrElzRoceYsTiOzRmvCZnOCikD94lIVgOB2KHwM1cas4AtyxECoPJQF/Dsvm+RU2OFM3NN/iwQW1PVLpuoudhAxXJI/d5DDIsmPS927nWw0BmzDXhShPBZlfdl75SsAH9AjARwFSLiDNqCKhZ2FpDLsg2adVa1JOSujjOmP4WJJZseLTG4IJzRzbmWkZCTR7ycQCJFdLCVqZBLgLc9F1YgpoRiy1y0NdNt9REFZN/SpJcsg9K3MhHbnKliGNnZmsVMQjoYyy7AZMzhYkyOecuj+YkrCLYSIrm41FYbq1UqmNMtqCcqwz5ldOOqFDwEU141CQpnW7IWLfMpwOhgTXWbGHlsBYwroL5PRPyODiJzkGYUx/pmk+cSvZPBzjHPH1uNkItEmLB+wvvXJfdQe/3dcrNf2vKLDco+rC743uw7zk/ML21GKjarl56kimmBxIgpjZzGr6ViIqTEN2A2yCawbZQsduhtSSqVQgyNtVtc0khsfu+joyLpXjbukfFEiVWZamJXOGWqwU7fbPgcu1RdW5Fez1+17qwJuG3K4s92zqzvJvTtKk7eL9OyJfSt+njcfRCD8LipLblQSQ1odqeh6UfIIszkMBNncHhixvQnSJuFqeWpqh1hZ81i/6zbHPs+MeypQ2p9mcuWVIbMmcyEKgM80RQYmc1Q9YAyE8rWMpwnuEDLnIbduhqFaI/L6MjUUchlMVqJUMl3AnERWYSoBXUOJXEGWWX8bKpZ48z0/EwmRhE1E+Uqcd6srdJnYZCzkS8yAbAQV5Cpl5GJ64gzbYiyJSNLLciZMWcjBpXQVDuoYSVr1mgMoNOJhghRD4B8XDN9jrVsweRD2bgMRDPIEVtDO6Js1jTTIUOrQLFZIw4C6szMGL1E9BzEaI8qhsxUsznEAU09jTlCzmZ9vGRDoEfji0ypml1eIIDXf03WbDXM+1w5S5XSMhlMnebCnowov6enU/MmgT41VlJ2GQR51inBb5wzTXUcBJlvmjK17X+k64zBmedxVYgAkvQWmEBDn9HPTNqMdRgD9cSPpOb1sdAGQslAhT3Q3EdWIimtc3CiuaGrsmZdPjRBi7FGiBMDG+vGN1hJPOOgYcFF/yXLY+Z3fj+/8Jp0FZjBlL9kpLTRmm8foCNbx+LOvFm/N2NzlROyJZbDkIK4aq4Jsx0IQg6u3HREWSzf1DQI2+DPM0LGFSJbr4K8ppwhK+XTLLmPhDRMXZ+CknUgoAUP/l4mCJEPQ5M514zfMliSnXLAI5VSKObeo8gsltAc15E180g2QL6XQTabR0g2bkhNhCwqQFwwdkU+QAE3CnJ2+IQTMXJWWVw5pVSjbu2AMcLYZBwhH2dQzZC+yJK4KSxADeT59AXyPPpvaCpUQD1DRIv9g+y9nuF+C2sihmAIhSZ7BfmnmRvCLZIri9gst+hkxgYsiVuKGElgdzmPEE1HvlUA8pRKp9aukCK2JHFenJut3ZMIvo2iq+qZ6iOHDXqZ1p1T4ZISX8gxPqRK46ogx2NUrV7sC/rgIi9cYqVBCpcqKdBEgcmAJ6a/qmxmTMcjm/Jd0Zl1e4eyZMt+CTeRHnjd+qng37kyP3/gd8bIlB3fvKX7wyTZ4SoaxUC2eqkik/1LtZrJKGF7DiGyODJTx1SV4pAnvuRLPuH0yeKsBGHOJ4a1CfufzRyGyEXTOGlOEYv78gJ5ztDJzcbqATbvizAdZg1B8G1LHN4IFCmAZzGCV56SxQWnDBqrm65H+OLtU9g/1gYqy1ZtJkz3yEWkDs4QoqBuAjUFMIKLQjSDt5zTj6PjAW7ZUkGcrfB6Z1wwgY0IQykexwVLgPNP70dHKYdtB2t44KkxnL66D9c9VkMNReRCJgP1TNUorRBRGI9QzYQmczEZSRxgTvYoNp25CD95ooL2cBoXLYtx/oZ+5AJgy+5p3PjQC3jVRetx/SNVzIQEbhQYaOQhCnGI6TCHrmyETYtivOTsufjSrRMYLtuFCBssCNzof8ToiAWSkUpfgc8CBTLsETK2qiO7KGji2sMaVnTXMW+ghG1DMQ7M0JzwPFRMuTlGW5QxQbYWZ1Gj9dVsxQAoBQMiJkz+QuRJJwThcc2cWIlcEXVLCg0Rio3JIo5LhmREwQxXlzj8W0BWW2RjoBjPkFZQz2b9vto4b4MagTqXfU2SRuSJhmOIG81r1ZAHCixxto44Ij1kaaHNra1xtqCy0GaWbT92gOZTer0e01hw0+mOva/pIFYVFsruOzMhBruJPpJuLEW3IyyaJYcA/cEwzj2zH3O6C3hgV4xf7iYia3tMLAGkR/C6OCM0PSYXhxjsquHkNT0o1DN4av8M9h8tIwCRY7qGyCqTN1MypyAdtwHZsvGLfC6DUxcWcPBgDUMzEWrIGfKajSnAw/iZIYjmcAgCkzyFfUNMCkQq4yr6+4HBub14dvs4wgxhAvU90P8nEcQlQzy6S1lMVJjw0JhpTuk+2YBsmwgGKa5gEw5CEdJVHlG2jvbcDF6yZj5+8ewU8kQE4prxbSYF7aQFBMG0CephHJkmQtJRITbWYYjMdLaOEo2XcMH2EhC0ZiI6XjpC3ZBiJiOS1BiCIm2ZPknVuaZezUpYVqJCYMOIrFMzoeTLXZFNF0vtncS8JChrgiqJta902eJs6j56HOn7mF0TLntPjsnG6wSBMeNVUjo30UVmX9hqKdtsY5LAmmhfEvLeRDZV0OFE2w3Q9wW4caYqA6okkQj0x6PvVvN2LH2zXfs2LZPgWZ2miZgQDX9P6eapIQiyxnYZISix4BSaKoC+EsUpBKejWRycjjBerSQq7kpdCXxrQhB8CjXnk00Igh09PbwQTuGqDR14+VntnMHZ0hqBDznnrrEA//zjKYyGFHhkeri0aUJZnEUhquH8xaN41+uX4XPf24O9R8axfs1KPHOoguHpCO1x1YDXVD1v2E876ub/5GRjxopCZHM11GKgq1LG775qJXaNxPj+Q2Nob6ugHOVQj4qIkEcuqODk9sP48FVrcN0dQzh8cBynnL0Uh/e+gIs2LMY/XF9FGObQWcpgIo4xXqsjk88gW6fljhqnedUYuaiKzgLQjyN4/WWn4+9/PI3u+hiuPiuLoD2HrTt2491XrMdXv/0wLn/tufjsjyZRjesoxjFmqnTPCXzwjWvx9Z/uBSqj+G9vXYVv/XQfnhvrQzkI0NMeoFIHRqtZZHIhSnQ+fj6P6bCGErKoBgXMVGfQ1ZbBVDWLMgpcMJbdmmYJgQIA65o0Pzcax9//9jxcfEoHbtgS4i++ddjAaj0w+Z1Zczi5s4rF7Z24f3cVKFawdn6A3YczOFovIKK4HRTQnZnAS5YWUYwCTIVVrFs7F//20yEEBarCUNRmtOvPxZiJ2zEaZzA3GMb6xVRIyeNoJY/t+6soU7aWIVZbBaIczlleQE9XG+5+dspUVmo021EBIVVV4jLmFGcwXS1gOioZ0kIgTxWfuknsiMgRI6YKDFU6KMslcmHPVLCpgByF7eK5S/MU4qnMJg0cnFH5CoRj3ALyqkQva9bi9fkoRilbx2BX3mz5M0tQrm5BbhsiHwW4+rwAPXPb8Owz+3HByxbi2hvKODBaQ85UADzHNwV9CdqIUYoDXPmSAl44NIOR4REsXL4Um7cNobsni+p0BjMTWfT1krLqGB2ror+nE7U4h0ptCsXOLKangXPXtOHIGDA0UsOesbyZmyVtFfR1FDAD4OBIiN6+jGEL0fQ0Cp1tmKrnMDlWw8J5AXp7IvT19GLL88OGpBfagPpMgL7uCMVsHuVKHRdt7MW9T1YxWZ5EX0ceY9MBjk4DYTZEf3sdXYUI41MZZPNZtJWYzBw+nMX8vjp6e+o4bcki/Md9RDjGsag7Rp3KptMRurvaUJnJolKdRE9PHrVKBgcmK1jcW0RXPsDh8TLyQRb7KjEWF2JDYDo6ChiucS2kO5fF8FQVFbSht72KsFLBxHSIwZ48qshj31gWVdUpylTLZ9u6P0SCU4I32ouTtuczOJnbhvs4FuGXG5sGpRbZfnLVzB4t7KoZKkY4u/dNl46YKEFnk02IA4cI/nai8U90kFip9opx/U96eU+TAtG30qUQrEQLiyIIySB/ArKlsaHpmHhwiSk6lmwpGZpVaWSZ2JXv7ZZlT8RMvRoBptEZBCgEEcbqGUSZEMW4jrZcARN1Sup8w7Kpshuqn8XQdIjxajVBEFzZyunb1oIT5yCkMiFTQaCHmDMAbInVMcc88lGIgcIoBotVUyI0Ga1d7yLwnqy3Y990O6ZpPZTKmCaJs+uqhpHn0B0M43Pvm48b7hjFTVuLWNBFJfQq6pkImcmjeMvFK3DqyZ3YvL2O7/1iH05eksObX7MIM9PELuTcAAAgAElEQVQ1fO36XciENXz4XeswE2VxaN8kKtNFDI0OY99wHVe/chEmq8Bnvr8Peys96IyO4K+uXojr7j2IO3fk0B7EqMUFLC/tx/tetwzX/vAALr9wOc7aUECtEuBbP3gBLzl/Pm58eBoHj1bwsXctwHd+8Bxee9FSrFvehrHdoxiJO/G3P5lGWzSCd23swDhqeOLp3fjgG0/DrTc/gosuPRPfvX0Sb79qAS064IHHJmjFAde8phcPbweOHq3i1RuL2D4MfP/GIZy2ug0bTuk0b1v60jd2YdM589Df346JiSrymQi93TkUi3nccf8evPSiRXhwcxXfvGcS5UzRpiHcn0DlVDoul+cD6AtG8c/vGMQ5a9pxx5ZJbN1VwcD8fnzh50fx/DgF0xquObmC9758Ea7+h61YubyC/37lSfj6jUdx1+4I8wbasW8igznRPnzug+vx5e8cwfDMNIodMxgeKWNwoAfjYxEG5hYxNl7FS0/uxGjQhX+5axQb2o7g8osHcdfje3DV5afjupt2Iii0Y8f+KQwujDA1UcL4ZBXZfB4T02WcubwPvzwwiVIG6BkoYXQ0xPtePgf3bwX+89FpxJmCqWhkUEZfsYZ8WEUcUfZHC879hjRVqQcmlaIxXLHnuzVe3ZFs0VRAxWduZPuphlhdXxUYlH3E9phjDc7ELUuZKuabHgRuYpUTDnntOkauOo6/efs8fPX2cRw5PIz3vLIPd+3qwIPPTyCIKUvgThD64/pyzBRHyEcVLO7J46Kz+zE9VcXDj+7Dyy5ehBd2j2DB3D4cGaojiibQ2ZnB5GSIM9fOx52PH8apq3vx3O4a1p/SjunhSRwtZzDYn8edT1ZwaGISL11RRCHbgfaBAEeHZrBqWRfufeogLj1jPu59ehynrOrEvv1VdPcWMDlzCHP756LUHuH2e8ewYmUJ5Slg/pwShieqGOgE5vYE+MVjZVywoQeHD5TR0duOmx4aRlCqGZuZPjSExSvXYGxqFNWZPPrn5PH4k/ux6czF2LJjCGevWowv3T2N/tIkLj9rAPc9uwebNi3GL587giUL+jE2GWN65iB6i90Ym6zh9CX9uPeZAzh5ZR9qlQg/2TqJS1b2oF4LsWxBO65/Yg8uPmsRduw4jJXL5mFOd4CnNw9h5cIe7DxURz9VIbva8PCBLHYfooqGXa6yZ/nLVkheflMd8zr7Vx3oxvZkOcVljHyBb9T0TeB6N4TYEwdp+o/t3LC9AfKiOcFhHqvu5rDVCsnu3Q4zBfwulXTs0y4tsmxuqU04tSofuAZ1Rwv8OgTvsLA3T91HMmRzKyebbxKV48o5cNokRPix7FBI6Zv16SiLXfYW77F1NBHRzpuWTcbkviHN9042U07z85ZYd0wWGRtIiiv3+J4O/oYkWNIw6xMCe/SQ5Qy0tEovnJvBxetK2LQuwBd+tA+1IINl3TVccdk6fO66SVSqNfveFrujK84hijIYmgkxUadlOb8w5fBNyJ2VzVcQUuSAFNP/iWHfl6gaa3iucyjGVbz6ZOCi9Z2OKwpjJPg+MJnFv982hWGzfM27F0xzfMQlEPpNbzCCz71/IW65p4qfPBni9acV8ZJl01i4qAPPPD2C1Sv78a83bMU1lyzF0ZEZnHHePHz2W8/htME8zl29AP2DOXzvzgMIp0JcdfE8PPlCAZXJ3Thz+QAOHRjH8jMX49rbqrjllxHmh/vxxT9ajr/8xmE8NtwJBKSkLE4q7sHvXbYQ3751Jz7wjg3463/bj9PmVfH7ly/EgZE6rr1tCjuGyvjcRxfj3rv3o2NOD35651685qQsBleswqevn0QxmsQ1Z+fxkjO6cGikim0HYjxw1xP40DUb8a3b9+OlZ/agvTyFgVWL8J0btuMDV67DZ7+zB9W4jPe/YTG+eP3zWNSXwyXnrcSXfrwP63uG8TuvXAe05fDd+0fx3LO78ak/2IivXvc8NqzswuJ1C/GN657EWy47CZ/54SiO1NrU+hibtW/EClCMx3Be71EsX1TCyJERfO53z0WhlMHf/6KCa2+n7CrEu06u4vXnzMf1T41hXkcVF68ZxBPPDGFHpYgVazrwrzdNI1fZj2s/chJ+eM8Itu6v4g2XzcOuZ3YhF3SjlIvRUypgshJhIJzB/pm5+MdHpnB623686sIFuOXR/XjnFSehMjKFg4cn0d/WhV/uO4rTT5qLfSNAsSPE8oF27NhyAJ1z29Dd3otbHzuAlcsWYF1fBbc8VcQtW6ZRQwb1IMbcUhl/fkU3zl6cM8gyVAvw5Z/W8dCOOiZst4Ov/TrkcyjJv7HHetvFVueSFsTkhSd8ZaoPQWcZFotcj4PLlviHXBSjLVMzFYQsLaMYb6DGNl/lKYXTuPIlWfQu6sS+3aN448YB/NMtE3hyT90sv3C2YpvCpMfBNBhRXlDH6oXAzEgN83sirFg0F3Pn5bF9+1GzIDRTjtHeFaKjo4jx8WksmjuAm+/fhos2rsCNd+7CSWsHsGp+Dk/uqWDtYAZPPR/g0PgMLlpZwp4hIDdAyyNZzO3swE8ffR5XbjoJN9y+C+ef2oc4aMPQkTIqtaNYs3oxentD3HrHfqxZPQdxvYSJ8WnsPzqNuf3tWL8sh58/MYV1iwroaQeypT7c8sQM8tkRXHJGN6rDR7F82QocGB7F7r15rFqRxYFDh7B4cBCPPLkTL924Ft94sIqB/BRetqoLtz66C29/62o888wRZJHH6FgNc+cAfe1F44dzwyLu2b0Xl56xFJlMDj97eh8uPGU+xqdj9HYXcOOju7DptGV47KkjWLu4Exds7MJzz40ZAN47XDVVimJPJ+5/PsL+0brBLTkDRsKALzqJLUlzqA3OHokb+gt0lu6yc8lCpV/GZcT8g5xAK/zXnybqd7ok+GuTzJ3JgycMktjxIUzCXGxLTcpPOL5ZZuAa1312Lr0TiZ72JDfwvUBKNiZIPitvFeBds64iOm44MnR5nuVRRqqWsvlmYSeb+b5MxHHIlurHkI0Zek6byqazCF8UVLgkzc+q1dyMjSoIIQbyk7hyUxv6igHu27wXr7twNX78aBV37eA+NVpap6UyVkfG9AYNTUeYrFEPkn+hkxAqx/esYc7ag9BLTYoJ9usZGS0ZUJPegvYqFrVXkYlNodoOhJYYCpiMu7FrJIspOqohqJs1YxkA0QNqJuuIy3jz6Vlccvoc/O8fHUZ1fBynzZvBa16xGk8/O4ZlS3rxv69/Cu9+5XK0ZUKcfvYg/vTzz+C0RQW87qJF6J1bwP/67j5kyiHefflcbN5bRFjejwvXzsf2HWO4d98U7jzYh8Nj7egKR/G7r+zDWCXCV+6eQSZXRT4b4qTOUbz15Qtw3e1b8La3XIC/+NJurO8p49PvX4U9h6r4xh3D2H1wBH/30VNx/30HcajehuvuPowLeo7iZa/ciE/8eASFsIK3njOAXZMjeGBrDWUUsWJmJ/7s6rV4eMsRrFzUjd279uDci07FF76zG3/wlpX49Nf3IMpk8YE3zcc/fGcHNi7O4sJzFuMff3QQK/ND+NTvrDc9CX/7o0mMDx/CX/3+yfjct/fh/LXtyPYP4Ka7N+NP3rwaf/eDIzgQ9vHrKIVJUwatzrLpwDA+flkXLji5E7c8dgQr+zowZ6AHn7nxEB7dC7SFMd56aowVg51YtaodU7QVZqqI2+/fgrdfczLu/2WIz948jYX5vfjc76/HV348hB0TVVxz5TI8/+w+PLM7i46gjjMX1zF/8SJM7DqKPUf68J2tIU7t2I13vXERHtxTx55DwNkrO/D45l246uyV+PINT+HSC+ej1D2IfG4SZ6/rxO137zQ9HutXr8An//VxDC5bhNdtLOHmp4p4fG8ZMfVHUKMlYqzvHMan3zKIFYu68Pc3DeNHj4SYyeTt0oNvSnSK8SasurH8py7A22OSnT6FIOsb6d0ZKpPi0qp9GZa9D61pk34MQchQ45vt4LdAnUHdrGB1BGM47aQODPS2Izddw9o1nfjGz4exe5Sa/HwFgTcRc1ZmMDAT44ylGSyb04FqFOHgUAW9vQE6O/Moz8BUaBYvLCFfCHDgwCTm9vXivkd3Y/XyfnR25FELqSeghq0HgaV9AZ7bE2B0egwvW1NAT38vZooBnnpuBGsW9OCuzRxk2/J03HqM7TunsOH0HpSpuZhgIKBqRYzOzgJ+uWUC61Z1G9t8fmgcy+cWsG84h/7+GN35wCyX/ezxMgrBGF66cS4KYR1dpXYcODqBXXuzWLkyi63P78UpJy0GLdMExQJ+9OAEevNlnLeyH/dsPoJzz+pBWzGD8fEY09N1DMwtoJjN4NmdR3DRqvk4WqlhbKxqXojU1VNEZ0cO2w/PoNRWwH2P7cSFG1aglA0wPVlFIQe0dxQwNRXihQMTWLuq0yxtPr61jINj1ABrMU7NRboJL7FuL/0FzUrLKkgbs0ovE5ilAO62Z7xW/1Xk1PzWdaH7oJ+okst9khsCkuv1Ksh5HGlCJHTBwS25JXe68JiUsxyHbFJbdmvwLvYkq9eOeAhllh0ISjYju+5FaCGbqfwkqiF+hwhhjNuLMpu+Z5PNkT3WhZZNqkbpKpGsDIhNOLKhbckFUiIJ0/jAJd1YsaIN/37rJO7dkTH4xzmP7E7ihmNKiYkgUJOiOyfGRW65qZ/gFgclMdvqpR4E/R1FHOnHNtTxtvM7ceWGEvK2W11MgnoQnh8L8NffncCRCje3cc7EUoYEkqYBMERP7SB+95X9uPDsfrP+2FkEPnv9ERw8UsFfv20BglyAozXgX763A1eeP4ANa7swHsX45i/2oBttePfr5qBSzmAimsFDz8aYGDmCbKaA15w/iEopwD/eUMYjW2vIBTH6cRB/9rbFeO5AgO0v7MclL1+OzU/uwUmLe/CVG3biz95zCnbtrmJhXxFP7K6imK1jQV8eh4+O4g0vW4j/+W/P4M2vXIcHHjuAt710MR7ZHeJ//HQEpbCKN5+zCFtHx/DADrbOFTM78KdXr8a2HaNYvnQOxiensHLdAP7633fgvVcsxlNbynjk6WFc87oF+Ifv7kVXJsSfXr0IR4ZzWL6sgDvu2YYzzpiHL9xUwdjoYfzFe9fg2u8fwDmr2xF2zsXtD23BH165HJ/9z2EM1bpsG5VswyG26Gn0/OIovvzehThjQQF3H47woc9vRiXsQLXYbUrX+XoVrz05QFdHG04a7MTOoSPoHmjH7Q9swweu3IDr7h7DLdsjLG4/go9dsxL/49+GTRPnf3/HoKn0bNkXYMOyNpw+P498Zxabnz6Clcvm4q9/OIwlxQlctLEPX7+/jGoug6tf2odtW49iRSew6cx5KHTGuO+xYcybm0FbocOsDR88UEYmn0V7Tx7leox4ahIzmU587WfDmA7yZjdIlv4XRVjbsR/9ffNx9+4Qcb7ETXi2255tX3m38r4mRTOV4em+BD43QXf5yqE08qZCz8zsTwnCQC0eEdoRYkF3zhAEbpLjNUJu7KTdG1RRoPmjpswc2lHBuasyWLu6D1+6cRhRruRuTt7jT6/gHSXUpEukvW529XQizlDnQA31EMhmSC/+eO8ojJDL24PMqEGSCH8uh1oti0y2jDigJcQ6LliVw/6DAX45NoVMoQ0l1DEVZFGK64hMbw61rFKTMDU9UVdLp2k4rNankaFlwmwb6rRjKKoCuQ7kwhrCLBDVaVmSeg96UMnmUKe6UDSFPO0soi2UmU5DouK4Aiq40G6JDKFeLkal0IFMPUSpWgMKHahFtG2ranbecMd23VRrsxnaYUVHw2cMqaTej1o4Y8qYBJZ1swRH/VFUFaCUpmh3fVRQj7JmyatamzS6yWU7DEGjplg2Kfsqdh1gVAaYDM5sS5x4c5Mnhx4LqLb87g6mSgU6Qxw8U3W7O/zhxjaMSVJvm990kDbEV95hIsFTAo7b/ufCoc0uE7Q62XMhslpB+S/6vpbNswQ5rEg3Hzp1JHmEf+usjfIud1Z9AEYfTvdNZBOF2bNonP4de/O90BLWVKHHJ8buGceQTQiIHZfTt1WBl1svb6gdFlo2O/aEDSl9C/GSAE8YOJf6m+Z0YMfBOqYyoT15lRVrNgjYPgZClqHpGNOUEajylT8SwBJMuzMsiOIm56XZL1IFIdGBYYVngyXHyqI9qKI9JAetITQnu7BYVMqoII9yhrqMqTHLLgrZS0wDhdk2mDGZU3s0jhJG0V5ow1ClhDjbjkwmi0LlKOa1R9hV7wGCIor1CfRlZzASZ1EOinjHuQOIDr2AtkIVC9avxBd+shNxvQPDlQwKwRRqmSJmgjbkMrRmEyAb0JbKcZw12I5CIYOtIyFGJssY7O3B9iMhSpkZrOyNTVPkzukcOlDBqYsKCKp1HJnJ4uAMsKBYxtI5OewdGkOlNIhtkwxEC0oxpjMFDM/EpvGppzqC5XP7MDQyhsX9MYJajMNRN/bWsyjUD2PFvH4cPVLHnJ4ObD9aN5v4FmEcy+ZkMFTNYd9YDYP9RewZJ5ALsaKvhP0TNfQWY9BmtpHpKSztLWD3WA4zYdEQIOmcJ4M02wZtltsVTeDCFTmsW9qHO5+bwdZDVcQhb+ukOYhyIXqDMijs1sMYuUIdlWoFC/um8AdXnYbP/fsQDlXaEMQV5DIBZrIFIJpGIZoEMm0IgxI6wxkU4wqmM90oxxGKQQ0zcQFZ2i4aF1GhrCsbIqpTxlhAKaygEEwizBbxxvO7kcu24Sd370MNVVTjfpSzNWRqZeQCqo5MoEbAmu1D1ZToa8jb3QpSYiXTok71OGM3+dAWtbT3y1JBwws9FEq57Y0exhNkwteU3WFArf2Esx86+Y+aawc788hls/ZgIg7xDIC8hYrfK0IPqJmAlI2o94SqQTRXZvezzQroO3LYEt2Dmh7J6Tm6EETQ96lqF9E7RIyuiDjY1jFzSEIyAJilihiomaVtbnjqKwUohwWM1wHel0ChnLZF0jtMuBnUNEwJYpsdEip7NOeh0E6ImmkUpt0lmbjqtvPS9kFT6DLvReGzFUlfdDXtUjIFUvss2s0RZGirMsmdM7sg6KM67V4wQZeWmmjrJe1q4T+0KYh1I6fP8eSRTswZDGZsPH5uHmXSYLZIkn6prSWMzBjom3SELWd+lohLY7aO9brcLJxAzt9QvNMFSEUe5AVdKo91QM7LS/zcpllmKohIUJJAkNiymN5yp3i0LJFzNU22e7odvExrfP+bP1skLZtUTZQP8phUN5CUsmUJQMmmqwDmMqPX5DHQxu4aMnh/f8WreNyJJNm/EE3r22fsspxnSWGayEjCa/FAZJO9oVLUYd9IbXHUFQ4hdsdjSxq/zHhojLxri7dhkoGSX/AuBta2JCOBaeY/MBNhyhAE38Tt8E1jG1emXM9kEi1ioO+TdolBMxp7ehntmTeQFPDGPZsKJTBHJsN3/HqYpe8ZJ4tIMDlpnrcQErmgPZ2UidB2JbMfn7ZzEGxGAYqUEWQjFFDFST1VXHJ2FzLZDG59oozNR2grIpMBzvlUnd1sFyQQqSMXU8MR86aCKcfHyGXzmKYzBqLAHEVJa/g0EtP2R+VNAvocj60S1bgnNJM1zXGUcfHbMdhqCLAoQzLnERjANpu+CFoNEJZyGcyUQ+ToyF3SYxygQPsj6xW7hZPPkwBt5coGiKIc8pT12AOXzGG5pDfjqKRDGzwcc47NbgD5kw24hzWTo+1upCNbuqQzuk1zXQR6uRb1iJg95BYFlvTFaC/l8dzeigF4OmyDt5nyMVh0Xypv0uY9Whej7vBaSB2yBLohYtJTvoCQnhdFyNFZDGYLHZ/nEGUpk4twxpIsDg/XcHjKUE/aLIIok0GbUX2Eit3fbqQwW+RqhtzkaHuFyYy46Y+GwXv7fXlQV8Eckzcm6zMvAU8HNqngKSYuaZQAll67E08SYBMg5UmK0Z6JsKCzgKxpxOFGRVPtsMFa6IL1JrOll8Qz40wceiQ03BiIFY/P+ODzFWTWU0KknF+voVNDZ8FsabV1iYB8hM9roHkg4OGzB4h40NxnzTIQ2x3XBrkhjg5osc+3jXcmQLsKjEND/o7ZdZJDxpwP4ttozDFNNKfuABvehmhUZ89dIc80mBCQPfHOEL5n3b6/gm2e6hpucdMagJHTDoVPrOQjqUX3TNn4v+YdFnatWN4fwe/TsDbmfM7LzcFI3qZoMaEhWqlzBtKl6EQBy29D1ABrhq90xoFNnfPhjhiWM0dscE6wXUtQpZnR6TclmyM6FuJsUHZ4p8lAOmhr2VI7DBjkdPrtIPSYsknAd34nY7Lz6sJ6Qjb/0iKu3vnnuZ/Vtk+D5b+CbAZhGvQ927z5iU/3Wuj7OM925NLOMW0RNuUSPg9Izl0wZ+kY0gscmo5QrvKyldi7e0+Nqibxd1sRBAAtz0FIqsy+q8GhklM5se6UblzA8kf7kqjcaOXA12Y5MnWmvGt+x8GaD/gh5yf2z+UlCjJcMaSDUeQ8dZstKK8yVMQ6kY3ljtzwyVPCVJlgiAnJCYxS1jENgOZjARUPxiJKgqw20QTfw26XioF8jrJ3dSKdAUl7Pr2c/GU1yF3sXgIjsfI1yqSZr/AxMHKEEpWRo8gfqEFjkPO42RksnaM3YJrM17+RT+7GTN7TdgEqHRi9W0lqwkDEJWA+BUz6c0yx3G7JNIdTUZwnQkENNrY0JvI6OitbOM01PAd8XgD/j1cYdIBsZYnOJI/jhxO9h7cfGlMpiDDYVQJzQq4UyHjZXeX/cjqhn1Bfy2gcpnStSyMw0x6W3QOJbXCT39mDf8Rr6VwFDrK2mx4cZKWqQcSWT9/kP3IUqyvRmAoAf5+rIC7lc/hv7MfeQ2aKE3JVanWg5c/0kPhhYrt7jLVru1uFx2Z9yTMkczdDc1LNVM1e1+zcWTiMKmFLMGHQZtsU90sAraCfJSIu6CjT4aKe7FRQKJ2YsNQ866CbKke7woeLZC3sVOFDCj6an1UgwVsHSBdRfIVa4w7fl0HUjaJhOIqpqgidqHA0kZFv6G+W+KeWLXlZo2w+LKZ+8oKmx+6edUzZ1Lw10bdeYplt3nTCktAvZ/XJxhCjTl7ycn8SArBhUeyjCsLIVIipmn4NAS9XCmKYf1l/aUkQ6P5zaReD6tzmNVPvhkkT5kn3ZS178pgYvRiC/beBQrv+6gFFmJWwV4sGAnfmkBY+ZYvPlY/swS0wFQBBH85l1RvjTTbK93ZbmXW5SjmmeyObPQ5WZJTuVplUw6tIiMTuN3Xyhd26lpy1NLgrRwGQz2ZRCymTskHUVAj0rOvvc/VGjIe3qQg62coFlRBsxZrqJqQfegafMselXUNATJXGAp6wanMCZLKL2dyMyBVte7XMOtnokhyfSmUbDdeV0u2WHvPWbXsIlJlfnwaIqo3NGJWpF/XwG6+ZVKimQXOd7QjiRq9mhqjGKyynpb71tTp98sRW65+Rx86vuTxGMQgwr7OEHFWKDEnlLmL2ZXk1uKSE1oFVxuVIoHvzpqCAXaiQipJ5gyNVipLysblIELXZpLkkaYf8G/qyf4dk4i2BjurxA/xjXITyhtjUJFh2Mxr3ill7cIyn5OplWzoTktHKyZ78+m9OCZKRjM2BExBNsPjJ1miMkqwTO0bv501YrLlepXCkX0dAJdhbTdC0mz1a3j09X9LB0tkk69t8pN6gKh9LFupDrtW763hToGqtifHKrZVxtVawXIKcTVBYLDuLyk/cUoA9nt7ewW519ATB6NayK36OMEFLGBtks9LKcoMiFS7haiGbJBgm1tgKoJbN91r4voTmsgmHVWdDCL45P7GTlZBNr600mzcvm/EwNhxb5fRv10zULuw1JyZbwhzFoC3d5jhnw6Wt73HP30S1hrHpOh9s59apSEC7ZdbCJvW7GwhtqCCItwcx5nxihKfW/Y6BkcrvLoNUACBwYQSl7NO87Uz8VrJHLn0L2Os1N3mOQKZxfEW0zWmI9rx5PpQpNksLdI/Q1NMp47XBQvIJuyAqBwmZN1y5EpLf4macQdZnrUrlfdmN0U2jnjFVmxmrep+8BVM1HPlvpX5pHTSfzTFBkOycz4H1qKeJt2TxTmnq7Yn2xTj+hUTUe0H3iUDPIF2Z0rElCP5AJXZuVpkiHNZxElmh656XmpRIZ9dIRScOfGRdkG3IHCltgmNsSJ4p+VqCQKOgEx0FggxBsF25fisUy2PszIY4Wc4R4OYjqtnJNfb79XK75m8dRciO3trobd8pxgci8yshs0lb4qxXdUFbUlvIZpHLZ5HPBaaXQzCcz3zk44H51E+WTY7CFXYv4V2Irg/mfDqi2It7h6N9BbVvULOjcuVvgX3dI899AFJ25MCVzDikAih7xxupAs+K9CP4gibfl06W9JOiEgvnJHbJoCErYhlNxuP4SDIoOX8UxqCbIiz483KMUAWxWWujtrJjdOv05GmQ6eZIrlVZM5FaOp0bI2Pi4OtKzZaY8LseFDo26Fvah6yQBlqk0mL91GCgvYe7zFdRzFWNhq/iN39JL40xV/TzJiyHSYAKjpYEyJgUN7fv2xCCYisuFsvYlhRW6PUByXZ4VIk+B/YTFXB5cjwJUs0I+hlJ2dRShuCSkAHlJ9bAlL7Fy2SbsydTWi9p2dxJho4vJefNXa9lszr297WxwunbEmQVp4W8exXYUptNUJjfBKjWA4yUZ2xirtZOxE9E7/71ikwQFIZb8GPG0/+JUTNlUgp3xmYbdjgAqailndtMZnoBxypaXlhkoduDh2Q1Ir3U+y3Iy/xaJm8P3uV4aurpPk+wBUpPc+157soGTceyqUgIa1fHXzKRFku28Gzf5iaZoZPclhWYZFjWaTJzTSTs792v5N/ew4l4UfBmvdngaR1WQYnXuUdIH7RcKdWubQs7tWOkQ3rM7gYp8TsCom5hfjT80c6uHqtDZXcV/9CA5HbIabm1TtyEWqj2TRNSyeGqhayh6szdj8llOhaT/KS0A3kAACAASURBVMA0EUuNz4zXB0feEyxiyHNs0JTnC9Fw8Yhtx0+plFZtZpzI1znompcLmdhgg5P5i79nuundHynfyBj965N5dqS3W/mKOLjO4rS6Ez9r207PrwLwhL2KgrUNJIycr07YbHO7N+9x0cRNPUfIjR+ui3Iq4mld6SuFFCbHlWxbc+uISe24SoAIkVKeHYYE5STyaTLq6zTpxRP5DmODbdQ2uKN+po/k2H+lPp/wNfqUG4v9yNB7a7ecmabm2FWurH/57EzWWH1uIgUWX5BwxEOPScsqywwcnLxsRuoU5joSbimbbCGQgk3C2vQ/3LlCXh+JhFIy94RsyRjj6mlStbVjM/xV+LbuZ5Jpc1CkqsbqM35JmiYkvkLEl/lFQB8BPN+RVQQXT1JFHn7TuHoLqp1vL7/HJZoLQ+ipp08yZccsvR36WO6xJVlBSNnd2k/sRrlKb0KQ0pfNLi0AlQoF1Op124PgaoONkKQ9yYxbmJ/PEhuwS/u3/r4eoyq/+qqD6rAVg1NlVQd9VJqWIOF0qTyA1rZlW5BeD1NGoLGTCYWCPNtc5wKnHncKU5uG0AT6qH4Dd7GzXjsMjSQcdKRCwKQoKZsmSt5B7a0ECPW6rTV45zTW+dKhRDN2Jl4qUdIX2+Ul1wIjvRjmGpslOj01ysbEQZWXHNFRAVvHldRA+SMR1P5kn8dNPokreFSOmOryqpJPPY9XKnzGxUApls/kjSs33B8i7z6UpRC2JF1FETKSDua21OoCgIUfA3TNgih/XyfVdqQ+oTU/SV0mTQA0qVK+7JzBhUD17pVkKFWsPWm77jL7fHaqxLqzORNACEhKZjca8zkvVxkLdOuejZKq+p+CoLT8iRClkiI94emx8q6MBrXIL8w0pPXijdS9q0OVgtkdbXOxM3O1NKiqWXQuhi/9NpunFrmdTQzM8y1usN36pkwhtJIh82WS1EiVOf18rwoVzpNjdOqQt9JaIS1WuCqYKo1LBU+WHIR0ySvG1aQ2FzgRx2UA/CI9gT8vGwdlN+uC94KvThrb8+LeKZocRet/+bjIPVo2nljc4eUTmRbvFx6XPG5Z/pCwVW9tCUpi3IPrxbaSZvVND0sQBD9xfIP/+7ZhTM/MIDRNbRYwXcZESwUCgFL2S/mYWrPjTzS4NVOT/dyiqTNKl+1qwdIMosn9BUi833HFwOiCSma+gaDRaO26WoOHS2CyDp5e6FVs1Uurxq1la6qPZqChc2R7LydbWmcMIkYbBJIucApIKIQyokizoFoPFovRr6x188f38aVjyYYl07eWYoybt9d4UqF050qbKfDVmKtSiDS/kdir1r+UQbGOZNnIaEQfg2yHIX0l3jatbCyh/W/j8pFguy+DSsOaJ2EygoTNqwBouv0j3kbnptIuHBpZG5Z4NJbqObdiJ8gSfc47ORILHYlAKWVcVcJ0LkQjsiV+ZzY6faSP5e2skjk7hLBzTmDFAdLhpwtqPoPibXs297TB0Lx50vWoKHLrDckBn/csvURCP9O5Eily45xcRQX78imdPckOE59Ce/Bk0ncscmpldyUpHofu5/LGmsZEJifG9N3wlVPIFkEfpRqJspWb5ZebpGXW2K3L2BbXaKeYxSoeqx6D0ocOXo60k3kYI04yb0s+mDhpv1faMDFOE4RUEtCUU3kr4KmhQCpzkLLvBsz1cjFu8ptP5VXKjAS2Id1MojJi86P4haiI9WrkT2deeqqTU+pVbFST4fNQWmCusyUb0N1jFAb4UVri5lb0mtuS314teMIZjSMIKTg0V+0+cBjVGr3ASDId39ChN5Q2L6WnteFDsDZaUj5BTS7Hr0TWmyocsIh9SgbmbIvXpLgYLw1JKhhbzfF90gyYA0hr25fikypTiIEkgMrewlelU3aRLu8pZ1DbInUVLOmOWm/+u+YavcSgHIeb3zxws52lsmJl18lVIn4ekyivI+WCjoAkR6MJur1a6K55tC2qqequWaJSQSvh+w6cFBhLyE4FOp2Rpt3Ky6btguHJ9Rwk4K+1vhMOq6orom+eEzv9ssSkTCyB97Z6IFUQOXiJn04Aact8imTLnKTCnqtUuD4a5ziSRaehpgG63FQyWeFXUbuG3QY/sTpKVPCUEs2PvGFSwamF5pRdajxyzshB0o3a9mWk8UCZtK/uuKqurRErkHZLgMn2h2SJyzzE1nSsotN9q2KaWjYZuue0smHUElWP4rrz1+OPDNeMnwOEXymyPpmsWKtxewJsnmYDlOz+arQX8WspdLvSliWG3EPGvuPnWvMd19uTbkGS+TTk0N/X+WUKGkQtjqwbXBKCwKFQk3uxCWmMdO6R9hM654KBz3MRXnNRWbi3We/1/KZV3qnSyk+anMWgFg1MJdnoTr83QnqvLMq5v5KLX0xIWP9O9e61zApfGsDXEhNbtZUldtuGoGxJxSt1D71USvZjN7q32OZotTVVnvSVA/sTV/ViI7sAsyt7KHuSIMf2oNVvp83uWSZCUKlWUcgXTPOjzKYv1ifXC52hOZLgGaaQBa07R1Ma2Js0kKmMQIxbkwkBeKP/NHu0srlZULYooKZr7qIK2/BDvR2KpkhEVrgok65kTJTtk2zQB1gtbKM2BGh9hmAPYJFLZTnBAXbqfjpAuyzBfVmV1hus2P3C2IUlDsYZxEYs+WJZUtHV/DM5kc691LqmLm/IfZxuLMv21QO2r4YVGDdAheG2vGg+SrAZHXE8sErG2Ew2I4lkuFZMD+Rq/3zSfZLip1TeOCbvfTJkPQENPMv5r9/370wgyTHFU5Rny50lM/XgzPbWSLyaUTFpyrQUzt602ZV8f5f1ucN3ZGKa0ijvwQ3RXduqBejk6sbsxF8e5+6rM2hvttpsUvHXISVXb1SXusRoq9qEW6aG7dzI+UprH3TXipadawk5TZm5w9yUG7Ijq0qh5VjSe6CTkRbDSbgTzWXzFpNkISM9h8pMzEf2NEBjKQ34n+Q/flh27lWT5Gz6VqsdCckYX9gonGyea/FctzTrxrMTGgsf/vhpcxuVoDJ8K+xksNFr77aIo+Ky06VOTJrtYnBmyg1zVs9Jlm1dk8v1XCJ0f7TVuzKt/bpjTb5FwxCESgXFYokJgmk45MlNV2ia21bStGQ2dGndALRFdX7jWmLaNAZqnm+PXVWe33RMadOWwKYBygneHOBFMJWxyzTo4OK2g6rrm+tImib4Qk0j/Fc5tHLVZpbl0AZVNdG33LQVLzkeUJDljkRK0cwGGvXtXVFktYTDXKqXNdRA1D52r8PmtpSohjbGnebS2SYwVgn9l7JSKa2ml69aTKgq36YczKJOC9kazTvNaFLIrxEmLU5zfcs+dzZoLVvaGFpMfppaNPSTNPleUzROoawdLvt8Omp7A+WMaVaWYAE+sY/ZDqoVsreQ/UXIxg3g2nubkNIG7/YRvHH7cXrMs8vQ+nic5vpOktN0dTPNEJo828UNtqXmVenjtCWzJGB3ibT016b01NmENFYm8VV/R7M2bUf8++b6P35b8vpP6zu15NJMJa4XLo38fpw+JnozU90Vbmm6eQ+CHZM0P6SDdUTb5CSqmBPS/LnkLjw6cKb55o6PXDbnGxot6zSv6a2HKBTofH37bbMNzzZGSuCwFkONV3JQiTZiPyFsEao+kCQaBs+k1KQ3+qeCg+ztVRPgt62wos0YW/hZ469n+Y2b84hPP7TBSxuZyCp/M75xpuGzaLX51fxWWqF1CGXQEYomB76YUyPN9jq7HGOvcsxUIUBSEuuBdk3a/MvhsCUq5tAl+8TjIH6+TK9Hauc0wWaaUx834fZwKbfiaWUTXG3WQtlUtlaB5BhxohnIyqoQ27cPAGlb8gCpEU7ZqHqJj1F5g2zsJz61SCOJH7zWt7tK+YkJpIngnNq9kbr1i/eTdEDnG7uRNv7QImJYDNDFR+0nFlualD9aRSCvFlep8hxLoUHi+8djS61kawDwZnzJmj8n6s6jHWU7Jv9pOm++eiAfC+ZqVnksDPDBJlFAPqZ+/QWcHDAu8RZHrjRawu1cwWOAsmjrWyeEwgnT5xJOwvrU8qEOCknMlVKkzplb0ho5bM9OlMcAncTyGLRsPDCzjsS46nmhO3slsfzcZABpbEpu8fbcWhEEp3rBT4/zztE4kj366CN48smnUKBXn9GEmaNY7Sgcg/f8fGRkFB0d7XjPe97Dx8qq9UUiCNV6DcUCvSjF7R1JCM1HuPK5B+ZNfkZntA/abv2y5fzZJkL3TLh3pLvdCWp93N7Ed8fOgkENCYg2SCm1tspS+JlNkwvfLpDCMK/ktOk3g1aOpX5euaKt95yr7Rm2b0H2tbvyrR2+D6ZsrD7R1/cQXfnRNRvnsfI2rfG0XI6XpmQzdpguhZh/p3bKNA3qqXmbFVkb/aRRahXUjgGJTYfDBp6s/Zh/trYlKUvPHhRaP806lat3GH2mcFDTseOew+PR9/HI1iTOHEuaZqpv6idOakUZdYNDS2BpVoR4EfN2DNmOV85j2ZL7/EXLlvbM2azg1+snDS6RCOfKMo/Hlo6p0GNe4Ibz/20/OcZRy82Aj373s5tvxh23345SqYSenh7k89RgGKBaqWB8bNyYey6fx6JFi7Bv/34cHBpCf38fPv3pv2yEvjhGtVpBsdTWFNtkqgzjiSLs3bcf1VoNnV2dmD8w79hVQvNEySHpJ2YwronDYnEz7HXPVtW9BFk7jiJl6/jALVwHJ0LsPDDNx9hmqBZDp8fXsXSgiPm9hYQhmqGaU4SpIsONPAbS7ElnrEC1G1m6wk2wUSfrWcF85mMDKd1Qtiu5bYfSSGibNvVyBFVzjCabwW6L6JJSiKEbUWzmlP4Ui8XEFYlDi4z8/KxmDYYS5Hz/iq82HSNOt/xYyBCppRpy8UleFEmnefJ5OPziH2quMg0+ZtsQfSBvKeEtg5Ll8fkdskbNDXFhzK9fpbcGCOh4mPJLEycUq16s0Cf4vWPB6bE+P6HH/co3O7EbnNjVJyTJi774xYyp8Ts2QXnRo3jxX5xt/MeS7VifH2tUv+r3k/c/sbsd6+pjfX4s2ZLA+SsFJ3erWd/F0GpAN998M+655x709ffh7W+7Gj29vQb+du/dje9993uo12tYuHARrnnHNbjxJzfytX19+OQnP2lPz+M7875W6kGooq1NXmVrwqDsYDbXyUtUxkfGcOnLLsXLL3s1Zqan8cpXvQqvf/1lFnxltErN5kf6j3/3AB0ea6rzlmlKPYMDvz+8In03ujw9gc1K1Mc/ifS6owy+d+8kvnLDC0A0ie62AqbKBVTCabz5vAI+9JYzzIjCMMbIeAVdnQXUowDTZXqbXmheizwzFYLe59vVVUQ2B5QrIQr5DMYma/zSqwAotmdQnoqQzUTo7KQX22QwOk6vsMmgqytrekAKbQXUqxEKGd7eNDEZoas9Azqym14LXK3S2zqzKM/UzNs324oFTFRD1IIQnVmgh97RfYJ/aO6Hhoawa9cuPPXUU8YezjjjDKxds9bYVhSHqNdClMtltLW1IZfLYmJiErTE1d5GrxGuo72jwxySNTU1aXpmSsWiIRv0u2yeAngO1UodhUIBpbaSq6g0H2qS6AiEztSBn923F08/sweFUoDVpyzFvO4czlzWh662HKbLMSan6yiVMigVcjg8GaEQh+hoy2FqhrYyRuigua3QjAfoag9QqQHlcsW8f6O7PYfRiSraOnLGVOmExWyWXk0coVRgwkgE7zjZcItZaOYXx1cHSNv9iQPZrxISTtSomquJbI3sJmveBOr/nJhsJ3b18deRjlPGE1f8cd6YMbd1zSh9m6SfnIicJ/KU1j56fHZ7AsI3twgXP47veScmW7OrTVQ8tv++OMGS3zpOW2ogCM2Ypl/h4pB46y234M477zRgTORAjlSuh3WMjY5ZoC5gyZIl2Lt3Pw4fPoTenh58/BOfcAqQbmXKo6uGILQ5AWQM3gz5N+PDo7jsZa/GLx66C7t278b3v38dPvrBD2D3/iF0dLRh3sAcPP/882hv78CSJYsxdOAgli5bjAP7d6Ore8C8nz6s11Cp1LBz+w4sWLIYCxYvxujwMIYOHMDAvLmY09eNHTt3IkARq9escmVdPSZDMNxBuic2W16/MapRgO/dM4Wv/ngI3cE+/PkfnofPf3Ufdo3W8LZNwEeuWmOu+dnPn8FUeQZt2QDZ3rl4Zst+BLUxXHjJS3DnnVuwbKCIl52zFkGhiG/f8CB+7+rz8Yt7n8OdTw3h9NULMLBwAZ55djtWDubx0otWIYsO/F+fvRGrVizDssVd2HVgJ958+fm478FdWLl8Ee66ZwsK+TxOWtmP4akA609djPvuvQ/L1p+KH91wD85dtxBrli3HXdv24ukdW3DlOWvw6ovPhDpZe1Yj5+UiXlek6tKjjzxitrnSeiMB+Nlnn43+OXPMK4cffuRxYz8d7W0448yz8I2vfx2nnnoq1q5Zg0cffRRvfNObMDIygp/ffAsG5s/DmtVrsHPnDmzbvgNnbViP/QeOoJjvQP+cfpx22inI5fhQ47QbpsmhqY3E3JPx7bv2YteOvfjg287DVBjjE196DtXhrbj2z16NnhJw/R0vYO/eMdRrE3j1JRfgez/bjLXLurFh3Wr85LbNGJgPnLRmBX5+9zPIFWJsOHkR9h6NMFUexrK5HegsdGDbjiH09BRRRIy1qwcxMKcPm7fuwiXnr7EHejWqtJWvNsJ5I/Fttf6ehn6+V/JJxxPutZ0303ez++rH/CZkI4JAy6G6CvhiZNP04sXI1izcJu2RpU/u0ZgdZ/S8ad3rgHM883Ys2ZolUbP1chxPPDlWSNRxoLW+W+vnN2FL/6f4yfFGn6a21MIgtGwtKghNvql+9fDDD+OhBx8yywimf8lgiDcdcTouf8NkqJ2dXXjXu96VWFeVloNypWIyQvmTDsbSDUgVhPPP3oQ3vu0qHDo6gje/6UoDpF/7j+/jve/8bdx06624+KILsW3rL9HR1Ysd23fiwx/5A3z8Y3+Gi17xRoThEVzwknPwlS9+CRe95tW47Y478dGPfBhf/ucv4NyLL8QPf/B9/PGffBB/+zd/hXe/+w+x8ZwN/C56WXK3jJLCS6vmxHRuMhurpFdyf+eecfz4wYP4wJWLsWZRCc/uDvGNG/bhglUV/N6Va3FouIpf3LMZb718Aw4fmMJDuybRXepANDWCSlcvtm7bgzNWtmPTqSvwwBMH8PQLI7h04wKsWdmHf/vJZrzhwjXYtq+KnQeOYv3SPNatHkC9kse/fPkXOHX9SnQUS9h7cBhXXLYW9z2yH4ViF44c3ourXnsmxsYqeOiZKRw4Usa5p3UgbO/Aj258CK/eOIBT1i3Bjsk87rj7fnzoqvP55UpN18ib25KxliDA+PgEvviFfzEv2wqjOnq6e/D+970PpbY2hGENTz75NFatXo2tW36JOXPn4u6778amTZswf9483HXnXbj8DVdgdGQUd991J9auXYeVq1ejVqviicefxLnnbsDNt96GwXkLsGz5UsyZ09862XHDVOAcA2NRgL//0t348DvPx0BHjJ2HK/jB3fvQhzKuef2paC9k8MPbdmHJvAXY/cJ2rF6+Grc99CTOO2sQqweX4Cf3bMe6NVnMn7sYDzyxF8tXzMXWrS8gKPVioLOMU5f347k9ZUzXYqxY3oftz44irE2jt7uEclDH6y9aZt+j0fhm1AbNtooAKdl4eUMfINPsi7NjQNpXE/+2fvLr6YvQEHg8Y5pNtgZkmRVfm/qu/uVsETdNrE7k2lbKbZXla30fM2KIfR+jXvBfbkuzRCsB2+PU4WyY24TvpiFbd1nP4ie/Lluy9zlO2WYdf0MEVcbQDCyaYUDKll7UEsPuPXuwb+9ek+2ZNWJ5FxmdJ2+bwug5sn48OkpNih0477zz3JGdhsfTEkMUgQiCriA0t/EY48OTeOXLr8D1N38Xo4cP4T+/+wO84qp3YdvOF3DpOSvxuX/+Av7ub/4Wh4b24fvX3YT1a5Zg2YoVuOPnd6M9X8K+od346J/8Me685efYsmsn2optuPI1r8VHP/pRnLTpbOzf8Tz+6E9+FzfdeBM++kefTKg7nUcdX9FpFm+lM/lj4Lv3TuKLP30BS/vG8ZHfORtf//4hbNszjss3hPjQb52Gg6Mhbr7jSfzWG87C3p1H8OzeGkZHQ7zwy8140zWvwr2P78bLNwxg0bxOfO3bj6DQ1o2ZqcN4/zsvwLdvehJv2LQOW/bVMV2pY/2yAubOKaJeyeBr37wXl1x8JrbvOIThkTFcdfkpuP/hfSi1dWLf3t148xs34sChUTy9tQ7kCkA8hP6lS3Db7U/j6kvWYvG8Ep4dz+COOx7AR95yAb8q+Hhad1MqGZ+YwD9fe605rTMKaQmkE7//wQ+irVQyDa1PPrkZK1euwLPPPovBwQV46MEH8LJLLkFbqc30wVx+xeWGIDz2+GM484wz0d3TbZYknnziKZx7/jm4/bbbsXbtSZg3MIC2dk9Cj4Wj7E91TFSz+PyXH8SH3nseOgshKlGM6VoWjz+8FZdetBY5BLjxFzswPh7jyKFhvO41Z+GeR7fg4k1L0Znrxh2P7sAZp/Yjn23DT2/bBjpb5NUvPRVPb5vCaauKWDS/iD2jFURhDg8/tQNdpR7092TR29mJA5OjuHzTYlNB8K+kajHyFAAcE2+OpYD///MT18D/yXNwPI2JJy5xK6hOVcr/C63xv/BRvy51/Ubu82vSwywEofUTbrn1Ftx22+0m66fGOlrvNefKc++cOyY0m8uadb+jR4+aHoRPfepTia1d0oMga8ysqORz/b9ijI9M4RWXXIUf3/ofOLRnN2743nV4+W+/F8/v3oMrXnYqPvWZz+C//eGf4LnntmHzs1vwW2+6DO943+/hM3/zGTxy+0+x7+A4PvWXn8Z/fPObePmlr8Dn/9fn8bE//iN89+vfxJXvvBrjoyNYsKAP//HNr+EjH/mkS4AaR3Xs1eDmLFb9NgZqYYzr75/EP92wB1E4jTWLBjB0qIwomsZVm/J4/5Wnmh6AW+7ejnJUQLY2ju6ePgz292BybAxhqYRHnjmA5QNtWLlsEZ7btRtnnrYKd977NN54xWm45bYn8Opz12PHwToe37wHS+bEOHvjMrTn2vGFL9+NpctWYE5/hMEFA3j88W3I5mJceskp+PGNj6PU3oHFS9pRruaxbs1iPPr008j3DODhh7bhnBWD2HhSPyYKXXjwocfxttefo1rrmpl7a1uamJzAtf90LcJ6aGyICMIHP/hBcy4G2cITTzyBiYkJ00Nwyimn4Ic//CFOXr8eCwYHcd9992PN6tVmaYGuW7pkqWmM7eruMj0NG87egNtuu8MshQ3Mm4e169baRsDWuEafEPmjVX9qvQ3jANd+ZxcWzM/h0gsWGip864ND2PPcE/jj97/W3Oi2O7dg1aqleObZISxdsRD33vUM1qzpx7JFS3Dw0B5s2rQSh4+W8cTm/Vi7ahDPbNmJWtSNan0Sgws6EEYZ7N8/jTiaQG9vEatWzMWcrn48/vxOvGrjKlPFsp0zLVOCVl7TMhmdDZXczSS7Udtqfs1odkw/OY4FjhPCwoYH/mZko8eILR3/HJyQJI0z8aK/fizrST7qhGT7L7Sl42Erx5L0hFT4X2RLzeIPP3o2aU5Ikpa2lCIIdurldZ/2a+lHUQ/CbXfcjrn9cziba283oHpg6ADuufsekwn29ffiqivfjJ//4ud47LFHMW9gHv78z/+HBWhq/7ale2pSLJdNSTlBEOShdumCqiHTk1P48z/6GMqoY8G8+fjQh/8Ak9Mh9h8ZxgXnnIb9B17AZ/72szj1lA145zt/G7lcgD/82CfwP//u03h+y5OoRwWzvn3vvffha1/9Ci6++GK8/R3vwAP33Y9//9Y3cNH55+PyKy7Dbbf9HG94w9tMpEicGu52LvLgElUENd6GTDrtJHbGqcKy43ANj2+bQoVeBxzZ/eVBDRtW9mDNIlqR9i1q/Dpjfqqso5pb2y1/kV0zpzYs58TmhxgRVXfUjlr/fXNqvWk8pPfrxQH9ixoZpWkzMJUOanas2ywkb+9PrZ8527XPB4Q22RiXqvimbWlqagpf+9rXMD09bcgkLSO8653vRL5Q4GUcI2y6bKzjZHOAp4bFrHktubxIht9Nwe8QaLa3vhEE5bFHZ4CvfOdZHD58AJVMiP7eEj769ovQWYyAjN91wK2wMUg/xn3N0KibgcdBn9Pp2nmyKzmV0R5BzRuGuWVWXnFCyzD5xKEnGpobQ6vMQDNza0AAe1EDjIhBtcKAFplo4j5q3hrWjE/UT8zAG7cENwNNJ+NxyKZN1euruS0lwPh4ZGsWqVpOyvFh7qyyJZy9RW1z1gpCWmF+h8OJ2FLLAP3/hi2lFab+nd5e3rDipgX5jdiSCnUW335dfiJZbeKw21atj81kS2GuJQgNMNF8ru1vb7nlFtxxxx1mi+PGjRvR3d1tEPfo8FE88OCDxvfod694xStwz7334vnt282/P/7xj9ueBX/SFFUfyhXuUm/5R7brxdSdHiEOCiYG89sCpR/AQnBMUOtQyG5XoF/RuxjsuQMUaE3Dkpy4FZjgxCc9S3jlQ4jMwUEq4EpwlrE2ay6ymHZcZTazs1BGzM0cNrxIuJVPPUwZciInBB57k6GmC17FEggcUvKpivqpSSpCI2NN8OEc/lQwf92ssN10eokk0RJUGIamEtXR2WFswdzTHistOm8IQnptUl8kTmdUmZy9xhPOUsNqeAi10WYwXY8xMlE2NtLfWUAxl+XjSwwpoy8xlWQ6wNscM+Y4cbJXsqU6ooC3PTK59HbK+qMNo/Sqb6pbsG7pjrx0I2MU701b4azumprzJtembOHE0KBJA3zqV433U79p+PD/ae89wOy+qnvR35k+o5FGGmmkUe/dsi0Xyb13bIzBhhCKL+FCNDJfBAAAIABJREFUXu4XQgglQJIb7g0vAe5370uB95JLgBtsSELPBxg3MK6yLckqlmT1XmY0RSNp+sw5531r7b12+fczM5JtsL4ES+f8z/7vtfbqa+21Sn57MvAObEb2ZURXNB/7Px45bKOA0xFvQhsubIl7KgX2pGfjzu0tWorHWsqRvy605IoWLWdcWhpRDQIbCE89heqaGh7kpLpa6pnmWnbxje7ycgwPDaOnt4dvMXz+z/5cK2GrVsmro+teqTUIbAHr61580VyBYToaxHJ/+AtSRKzolBZy+gy7RyRi26oY2fUoWDssrEX/u5ZGyAmQh2SAzVhx+ejWGRM8OLUqo9tN2q9Hslut+Gm6G0VQWGGTuUCfq8gBkxJHATy20iNXpBGWWsdtL2+HKbsGjB767Ix2iL31lAbuW9+/hYG3MPAWBkaJgVAnRbVegi1DkYJTHeg+2216+Kv5BmJ+qDC4qFf621A+j8qKCr72GPTgyIPs6+tHnVtAlibL9ffmsYTnlV+nHvBVvi2i1DNFvKJru6SzeEKkO3QOgT2WatUnP+9/G7nXBMIIRRtjjauYRQKbK2WvQepKw0saKQR3GAlbTNQ1ErqSYLPUFVzLpjEkLqOQrP5Xt552+CRc1RLedDxsyVjKjkP3yWxr2j05BK8CdtlsmzHkk/NCS9qnyCR3S6KlUXBRKXJJb/z88klGWrKX4G1QvBTYhJacFtsmKOv/JQvrJ0lQ7zZeEqUL5GMlc816obRBMu9m/9bX/spACDBptImgFapbGsFddt0+0dL6PRCU110Ced1Amo9+7xcp+ueSJrKCnfbk1/Q7/q0zJ8Tz1bRSlOt2gpYgKacKV+eB1GfdzTmjWxPx7U1vDJhvcS+M2VMW2LxnItaJw7c5tVJoaQxhyyKw42jJMnHyjIEwn+iZIU6axo03ZcG3x44evsO9GpJgzMonsXuKoCXhnyhNnw02Z8dvIlrKAlsa673FJxFyPAZpWfDtrTYSmSuGUYpql3M7n3zyRpa5foohVsP54scUQ/EVR1Kxqt2uEbT6MHTG2p/MGJhYSM1xqEjRphgCmwhYFJbxfE3kvttNBdDnbPQHLFEnyeGRjF8sEic140S1/3z412MHWxzDZDevIjAWe/5hEyb862TY7L6iaSlW+WXak3rIPhpFDWHrtBRaisY3vUcozH1CUb7aRUJiyg1d8c8NtTocFDAKg5aYMTp9y3v0sAVPJOncfsv4JIJYzy++ozYQV4kWz7vRPHku+OS3l5beyPoki8wdUQ2ClUkRwjEQPDCbcD6X1D8XddEshv4BboM71n+iRLe8o5So81jv6631flMw4Cr04N9dw6BUeN+izlIx9tbzb2HgLQyMPQaiDQRxzu3M2bF/s15RzWIY4MFPUeNx6bGoSIQSoXQzQeYqqBGZ/Kw7nTZcx+5FNGRt6eqo6imi13GRYJpDBTCj3i/jjdWXzpDKkL0UBxvXwmujKmlPvj1mAacjVLXwdGOE+lTkUKZh06gLTvGOsuU86MYSttHi25yb3L1wYHNHKgcJNzKqpT19RTd+uWHQyIzDt0unYwOb0OAbm5ai+M3nk4QYy3nkE58O7Cl6fMI3R0bAJwGniGVDCbSUJAPGlJZsS7tYueQ6UEoGydhjLcsSYHPR8Baf/GbIXK8GwTKRisdTExvVllXEn4Sx/BCu6qaon/GcHyVeVZZAkwwPsZMqElXANTg0wJ3xXANBXePjX6s1DMUpolV0a4O4Tj9H/2KbMwqanze5Bj31MAk2lzfYaHD2ZCdTK/WiGSm4J3s50GLXXlFUnzFsXO/mwKZx5CvCwKW9AGzWENG/siiX09GheLmwqPcUhM0LnMfjOxk29fJ02PxbIkYha9j06RsjS048Ct9yzdBewFSAeOdWIi15isXBt4JNClwsjoRihVztDEdHUTqwSTtya4uPhJbOIZ9Y81zRqkaIMdDN5dcYWnpT8YmbFFJXVseClqL4hOmSkSh8Ineq4/gtnU9cWkrjE9ubP0EGjIHMTeMTa5C4syf8PSlVoLy2NxqfjJnMDcAWp+PGRuZa99Yz5CJkbuIsBuoNoEhYD/RlxUzWsdKcSufbYb/S2UYmJcrhe9lLljDWL6Mrh339vTxgSbSYKTtIyhF4klsr2qg0nMFAMC/tFIEZo8ZFl9zMEBUltaoR+dbQXgIuheUCW5N2TmBz8OBs03goBu/Wb3IVWtTtlTCaS4UtgK9S09WBGzX881TY9IFqphPbNIJkYj+KPOVYWrICzRb0BfHke61qh/5b3rCwhZDh84nEqs49LaWfYLZzGwGfCC1FnFv0rrLySVAuRdFSgnwzL3+T0FKI7EunpeAZR8s3KwNCxXHpZBR/ykky4I3KJ6OQuak1CHF6zOjUFIZxyd+ei90xNSzq6e3lWQ2OeRh/hDF8F/UDsdBVAREtT95Z4BpHTJkZ0zEDr66yRb5WwIjdU5bNOs8kPR76TmImQesjBnVZthKJxAgERXNoxK9TYNMGpkKusTh14EjKXjNys36sJDBLelgMZeGIcJLJ+kBxexa/Ljrsngxpls1mpKXIk3LxnfKu0Nf2g8RfZuGTkp8JEGPE7/2PSoUtI/1FLTsKPsly2rSzrM8FoSjpdykPh8H0aSnIyenvHgWfmJxz0rll5JNR05JzhY63kw555sfOE58kGgjDTp9hzoM7UwxJnlPDGD5KrXVpz0wMuicC/Ye+d40MgUvm+lCUoq+vDxPqx/FqxYKOV8S4fWk6mdbn7oc6J2HeJ6G8IN0EvVGvYMA5BQWozlAoiIJnFHdmsifaGPd+1HiJ3UrIlVTuS9z7JGURbYypt/BvI2GzbnaUisiMb4X0WBYwaE6ELQyhihaEb8i4+A/jXedOC1plB2hJno/0Np1DiaOlWNGTlZb0iagMRWm0xIar3piEXaP2kx02hz4cUzjkGGSFbaz4ZNS0FMZKEp9YOeGmMx0qkxxnCi2lyYCgXEqmJRfprgwYGZ9EYETxFvGunq4aZbqOlJZiVWJWWhoFnwRlblxTjiyw2fS2k+bRhkhI5maFbQz4JDcmMjeFT7gPQsyfgcG8rQPgp6zANdd6SHEJsCy9SI+qJangh9vQSu6W6w+UGSE5Cuovlx8aQH1dnTY2/KIYq9xEkDmszK9R7/JrFPxiM/U+6sNPTBYuvPHA1xMmTUOnEAUpT9eknzX2gt6jECjnMBkkm1t2RbJmTVMMZFjfvbVGe+JjUjUQqtWxsjLoeUntMG5dfGtjTa2p7vibdspy7LyMXssOP9BthG3sxG/CLI1w1LwBtS2d1YzZk1dTonGmyMbCJskqgY1B03tKhU2KU3WiUjXritqTNYNEWAdjMSFaKhm2aD5RdMon5vGJYM/yidsLXxtdcj1Yn30sbLrC1sAmRbxC5KOgJalFMrTEkTkneXpOaUloTaU5DfGfC1oaYz5RyfMx4hNd2GloSeTPm4BPDH07dW1xtHTu+UTJzShaUnbJyGXuG4pPWNxYnVqqzE2MIPT2O81hA54fKSlS/mJQE6KV6KP/qgYydMhKgWihqDU5N1ei53kWApAfHkB9fa3W9UF7RaxbnSIwikBHKnI2zJGj3vc6QW3sHsfYVsrUZjLC1mPAMg+5A0HjQlYQyG0FvEaFUwQc5Vv4sBnNoYW5LWKSdHWavWtNneCTyb+MelpMsyjrMfs+on4d+ixAW5l+k/mhUjAhtCf0OsZwJu55LN6VtIbzXYn4LgWD0SBm3FfmM0148JzCViomxuJMHVjHeDkfi6XANnI+KeUtpdNSVgLKSI/nnZbeeDI30UCgSYmmENFYW1rJss4i5UweThlIOUvLJOWv6kE1DLOOMnBSwgpfDreXFZAfHkb9ON0HIeiaaw/89Okunvjn/ikvL8O0ac28x56es3j88SfQOzCItZdfzlGJvsE8Vl1wAYYGBlBdXaUHMWmPW2jEiR/RzqjtM02lrK6uxpTJU3gE8dDQEDdyKi8rR5meEKjtMvZSKU3S3d2jhlY5hZKuqUPDiLp7etAwoUH589r7olkW9G+aW2H/kCHCF66yUvyYPpc4+G1M3lSKpBu9SHG3HA9beE+hT9K2nSpQxg6WqL3FtzfOAFumc01DQKZFxvih129Pry+fpNHS6PAS/+sMtJT26lQ+GTsSGS2fjN1OXu+V0g4len/WQIj4fXefNARwVJ2E17Xip0ZHFGbk2w3yDv0MKTlbQapv5evQOPv9RWWAFPND2kDQm5AcvQ6DkzL98pe/jF/84hFTx0i/a5oyGd/57r+ipqYahw8fxEPffggf+s8fZTPk2KFD+MVTv8add92DV19ej3c+8E7s37cfM+fMQtepLlRUVGDevPkmRcG+fC6Hzo4ODA4MYlrzNHT3dPPo6taWVgwND2H2HJolUcYGTV1dHc6e7cbEiRMwNJTHrl07MWvWLEwYP55nT9RUVWI4r4yLwUEyUGpw7OgxNE+fjurqSpw+fQbjx4/HkSNHUFVVhcmTJ/PQqkmTJipjwbSn1jgx5zOyg05n6+h1VQQoPMrZ+8RJfzAJRCzlCdNY2ZYm9JJ9CvvrbDjzYAviV/4d6g0edVUm7OWFjys7bO5UTbVy4JOM+Dbndq5gM2Cff9hMUDIzLWUT0ObYzTGPgJYcvIwFn4yGljzj2CaJtZs2AtjOFS3Fyrd4eXfe+CQo0DKK4JHK3AiOH7EMGC2f5ApFM2YpJNd7+tRW5Yo+5e85/00zb7XgpGTCsG7EU67zvhwjKCj/V+IFnDPV+bMC/ZfG4OXUZLxCXkUQVJ8Cpzkt51tV0qKvtxebNm3CmdOnkSsrQ1lZGVavvhhNTVOYB44dPYjPf/7PsHjFRbj/3nuw7vnn0Xr2DN7/uw/iucefxHC+H3X1E/DTn/8MCxcuxD1334OLLlrFdRKCRApetHd0YP/+/Zg+vRlVldUoK8+hvaOTh03NnTMbGzZuxKTGRoasv68fF164Cv19fXht1y4sXrgIR08cQ2V5BZqnN/P3J9tOonlaM0cMdu7ahdmzZ2FocBBV1TXYt38f5s6eg/H147Ftx3YsXrQIEydOxLj6+oiaGp/c0mnUzWP7VwNdJR5UqmLkOUmhDJI1ilXt2YeFlP4kRtiEFH1oB4EnYpTE6GDzVUUp+PaNJF8IR8EWd7KR7+QPo/HNNnuG0/Lv2rotquN+HEdLpcJm1y9N7GegpRhjpZRz06j1XxbUoVpKjoZP3HOK3l/QIJSDTce3f4K/yXwyclo6/3ziy7t0GTBy2KL4P47GXEKPk7nJKQYyEOSKoJMaYCXO5QlFDJcB/UVg85YW7NvbxYZBeXk/3v62FRhPYX3vj7CV+pBMj3IxEOql1bKzVd3VriyXw+DgIJ5++mm0tbUhV5ZDRXkFbr75JkxqnKQMhMP78H8eehgf+9gn0dt7Bo/87Oc42XUK/+UPPoFHf/xT9PR2oLauHkOFYZw61YUHH3yQw/3ujQL6e0dHJw+Pmj59Ok62tqKsvAKnTnVyp8eZM2di3YvrMH/ufN4DKX2KGvT09GDv3n244IIV2LtvPxsvkyZNAgoFtHV0YM7sWRwdIMOjqakJ/f19qKmpxfBwHlVVlZzOOHvmDIuemtpazJ41K0bcJUj/kJIMTMXKpDiyPRSjj0vYXLb3lI6EEteNoc5sSjbixyP5YboGiwrIhMI0acuUpNBed1pKgiYN0hQaeN1hS9pfyBopjaAzoCbDIzH05iut7Ep2jPgkAyZKU4TRC765+CQDLWXAW+QjGpmJrZY5xRDlk0hNQbGIoTKgryyHL/7dRtxxwyrU1ebw1NPbce/t87BsxkSvPtG5JKIFXEFVqQ8PYxwZCIHXqY6LavsURWhrb8dXvvxlDts/8MADuPrqq02KoLPjJF58eQNuv+Mu9JzpwrZt23G6twc33XALfvDdf8fV11yOn//8Uay98kqc7TmLNZevQd24OudWgyoY7OntQX44j4aGBnSd7kJ5rlx9ls+juqYafb196O7uRnOzigo0Njay8bJv3z4eOrVs+TK0tp7keolZM2dxN0r6+8wZM3k9Mh4ohdDe1s69HxomNqCri6IiQE93D6cxxknTqFJV7jmUqyOls1RpE7FwJBiljH0d8WaDP0wRp1mkbca9hGICY7h2vChUzBWH79hwRIl7GzPYSnzv+YAt4/GmPzYC2OIWHcOl0vcdT0G+RTES4zlSNgTSnSMFNvPvHIc1ShuOocx9I/JJfAShCHT3S0GfE4aUq3BFujaYx2ChAv/+ZAv+7dlWTJtUg7JcFc729GJ+w0n82YOXYfx4KtxzK/j1pTv9EZc2FgZtkaImCsa71CDo63AD/QPYtWs3K1Py5inUb+hOt142LZ096eY2QA5LxBQSyMgkWTVdWAmZ/hKOWZ6ZfjPvboQrxv2slOUCZvnY43uEnpcDgwdOqbC5l3SCuevM55PyYKl7Ggtain1nKZvJgIBSloulpQzvyfTI6GnJe82YwFbKIklAjgC2scJ3AISxlwGu4sh00Lblg+bfscLyqC2jcypzM+JGP+YYCLIruzuKIPClRX27j/CoLj7S58pAGCpW4Ns/a8HDz/UiV1Gl6u7L8lgwbi/+/uNXcyhd/bFSVMwFdddBGwh1NaFgRZGMELk8KVcm5f3u1UmhDbmXHdLBtktf8CXuWbi8EOCLBKwmk1X8t/436uonzC0J1+DORrhBSPzc8shgcxoclkRX4R2b8RsBKzy866gXJT8Vd4ZpWx5ZFXqYT+Q9SfvIRgdjQ0vMoSPKMEXBpj57o/CJC1sQW2PFJ+4lV19yxVPU6PDtqBQZUxNxGyr98u1vMp+4uH+9+SSO4889nyRQYCi+kUXmpq2XOIuhm4sUff+fK6q52HCYzYV8rhwb9gF//q39yFNFQbGAisphXL9kEH/+3gvA7r5oJ2c3fMTMDAV1i6G+2tsr/8Tp4WQaF2kDwVP02SSDmBGZS7lCyCvlPaU8y6AGCjQDdUlpyu68fh+ALcIcSMRxKagp5dlIxVjyAqWQR6mCKmAUZn1VqTDEEcNYrZNGbKW8J/XZUnGctrlRfJ+618Dao+STZJU4OloKGTSjhC0Zq+fpDEuF4U3MJ+dS5rpoSahBKEIZCG5zoIBtncuz7u9BBT72V6+gva+KCw/Lyvrxobvn4b4rpqrkglH0ujGQbqVE0Ykc8jrFQNMcpaeS9lqc30UEDErndDFUTEgpeH0vbcmxosCo9wSlSYkuYEgYxcM22hr4NCyFLD13ulKkFk9ZsQS0Z79PURIU0Q+XsK/wAqX/OAzbGMAQR4riGYQvWGV4aemwZVg02sAv1XX/TeaT7EgMXpyNq0QpYcWERx2cl07Db3BaGjGfBJTR2GDaWWVs9EmuWOROBt6EPNHUXIPAAt15r9L4uu8BxcSp0LAMT7/Qgs4hMicqkCsH1l40GdPqcjzoTfU+kl7iqkmsau9bRDldkcyrGgTqS+9ccrRtfBnWpKC7R4FOcEGTo4urWIGSRIjyXSnPxD/L38TuKfi7FNg8NyPOqMjCZFlgk5fF7UkXvGXCd4AjvNeLGBntvp39xnYRKhHfI4EtbDGlCOQgvaXgIfbrcwHbaM8kAbaQ8k7ik2wKKdRDItFAHSvYziGflExLEXuJRV1SJfC5oKUkrTi2MtfoschiyXMB21jRUgQezimfuLKd9Dwnv/1Yp/yTIwh055r7H+hnTG93Ow+Ax0Jz/3LVAVCep+uJbGDxf/QCnoCl7/IoDg+hfry65ugpT5k5oOnIXSb5wJ3K7BjYxPIJGUdxeivivEMfZZHjSeu4KEpYy3w1StgMqBn2lHYbIXVPo4TNoaBoWoqQNR4tRdnWWXjYVeWjxHccjs45bOeBljLBlkXmJ5hOwXfEnW9IJY7y3EJyKYmWssgA/8B9UfZG55M3Ci1F6ZPRyoA3Cmyl8kkcfY8BLaX0QVBvCA0iMvMM3E6LVMxIKjwPFMuo+bKj7eXktMEgQQldgzDQ242q6go93smxBqg7o75SKQ6gCAX6b/iPsoCts5hFA8Q8E2lMBz401qjGkR5KpfaoG0zpTbJP7HqxkdLN7iW8qwTYEgVghMSNcxQcwvQc7iQDQqeQvBqRRLRHBRnHBjamicQgShDwlLuT3s2YJG/HqqTIxE4avmNIWVnXYsoGYHNxbJhCDfMyv9CHWBItxYI5Qj6Jgj2BXl3qkCmxMtDEkwH6ZpQdtOXclDLvdIaTMW1oqeHi1JFvMgTNDsJy6oLc3zpD0YJySU9P046OrtfSw3IM2Px+JR91LNXILLXDgDwJDMXidUy2V3lsMsqe19RRXjVUTr1VpsSovi+mVa15G6NHt9O3/9XRYocQY4crCanyu9XmvDgg71FtXE381UA4sIlMl/k+yuFUAJnPPNiE0qWy06nw1GFvPRvYdvExMNpbcpJGV8Fl1d/GHULmnZuBTc/+08MJDWza3zYazx36pCf5so7iY9aReGdPQqNCzbx/b0Cf1XxCRoaWYnSlOm6b3jcpgUg+MQQk71WUH8X+1EnRhhcc0WfG1Np4jdo2YYu+VHmFMoUF03vMnQgo/RspgtDfexa1tTVmcp8spZhPE7hmUKE/QhzNRRCJKC0TLMNpFOs9qN/JJIjIOJMWICJk7RFF5FgUy3hdltTELBeP9g5GBuUSPABTgqq/iNmyow78a+veejLNSxGbo3fsxszzEZRgZK/9LtYGcBSCiCbHYtMc7TA0VaEU8s4sCkfQy071hEqzWVpYde721zOQOYrA8BOtG3EiUbAlGBm+knKwEHV+LOCSzj4Iq3424mO1fMzzwjDBm0LO40m/DO5Q9J+HbxcOr9VzEp8E8O2dmzBLfCdHK9ylo6pWPgGcWtiioHQPxjocibAZ7RuHwPB7jF6MIj2RFS6iA4ZTebGIvJNGDQ3ZDTFcBj4RRrc6xdmBD5vcXicnpmAG4FlZETXyOJayQ2wxCj7hn/LEG5N+5o+i5Bs/F8NyWmdZ0rETNi0tWLmkpu+66HKm/InYMYrKIloMGfpE9mK1jtZOMuLdMxTcW5dOat6Bx19HrESb7jc0qF9upvcaveTSjKOXjR4joZpXwpVnAbER5VwVCGibHl2DIN4vNTVSil1tiseIO5xG76GKBvrDEQS5ouiEg1wBS68uyxXQ19+DcbWUYqDfkvVWRMFMh5QXWCtSv0ANM+J55tS0kIodHe6MpN4cKO1BXRDtvGZ9uEYJRbt7/p40otk6pIiJM87Vm35rLXcDhQObublgKUmRnKF+2YtT8+G2otYYDq3jmGS+WnEGG3tKUFv0dpP8NyYhsZi1rmODUSx6c/tC3uIwhdzKcGFjNOkPHLLr7enlplXURCr4xyhGYXAzzEsLL41vpXvUHFGfr4WWxKKQDVEqzLWMbZyMT1eEapIyEknlyWq3qDdMS9Knw67viizBjYzT1kLDc4ystBd+5BWiqnjtcgpZ7m1fkWkBhCvvSd884mtGOrqjz012G4qI6XWET9wbSGpvNJfF5xPutu7EKF3pbmWNu0ElA/wbTYJ8NSxOeczSYE0hQGhWEbUd1e66LqPjE2usWvkW8Hz1nlQDekWlahQ8ycAylOeLGKZ5bVTWRWJat9P21AwrFM0R+iCYGsR5onOTQ5Yr4gGD3Xyt6UHZsBTxzYPupVUWyzDILfDVC/h/NcmJc6E8IcerF+/MPSrjSTuR5BL4RB2V4l21Dytzg7TkgKJjL7JzwZXidZkyrDDsbMZYFX6s3MwnLiNYVWRB8C1yiXWOwydaKvHexfUm/EoEJ0oPGLQ5fMLvZlonnZrEJ/pKs+MvMc1rfSb8GnQuiuTE66nLzFPMJ/T0MI0ONOeekGIoon9YHS4Bq4wehVQ2EiRK5QSwbIGhlldWllnS0VEB3kxBlSv29feitpquOaox0VwEaRCUw9DwMH78wx/i+IkT5lwJKGpR/MAD78HkxknGMNEGp5GscjhKqCiFTgJQDry8rAz5AhGQOgWlmy1ag16nCCcySMrKytHV1cVdF62d5UplIixNGkKPnvclAkIzvrbkNJZ9W9hjLoVYn/CCo6hFNDqM5dhPEnIKaeSYaJLRMObgTTGKx2uSkDKMoEON0tPaCXaaV1OnybraWuTKSELKiHEl7Ey4j4d60Q2ZMj5rdUQ5FOnsNKboXOmaLTFUeVkF9+kgiziXq+KhW0bvaW2paE224Zwbc4xicNcj8GHTZyvn6fBBtA+jlKSVpVo9sYEj5ynb0cLBM6acaIRHC84JGmmilLzghXBi3ksKMpfjCaSK1fSwNcfAEENN9qX+ay0mxqMe0KLwow0AxzTz/A4jgD0Nok5N5IpxYe2rTHLThGnVeahzVnJJwUACjXibznhYKd2yCv43w2eEn5Zh4gyEUkhCA9Z6NoE88VqN1nTOTWhR/9wkNhxeV3gmpFFz+R6U5+qVOySyrlhAJanp8hxywwUMq/Crho/6oyjjmWQVOzkkPgvq7ATX9IwyhnyuNmaS2E0k/2xyQ0kS9r7zKM9VYrgwxMqCJaafjQhLh1wOZ8+exY4d23mmzIoVKxycu3arNTR5TUtOgf2GacmDxqMl8VqI56mnDuGFnEZaX8lwxq8ulOf6OP7QmrlGLmk+dFOEFKGm7r27d+3mYXrLly83fKP2ZHnayjuJYWuCsVaVeT4mxuGHnzU/mpiIR0v2XCSFFIxUMqTaGKY1yAiVtAnJR2tA2Ig5Tyou5Fl+GngiIwj6W7IlbBRAK0/Bi3Uuzd5ctRoQu65zYF7Og46LBZ5lUF1FrZYlJOnuENyW+Ctf+Qredf/99l25HPbs3cMzGd7znt/hCIKzNQugIWnFVJu3bMW0adOQzw+zgUEHTwRDQ5migik+q2mSIEuyUMD//F//C4888gi+9rWvMfEElWPwt54mDX854k8ccvctY2fFOJ3i7in+mZStGSURZRFGnYq/HhsIdXUBz1A9Mzw4hCd/+UsWkDffcjPIoBP/SzJM+eFBEJTtAAAgAElEQVQC8/zpri6egaGuz1YCuQF095xCS0s35s2bC2+itkQ/EkCz+EjCTMJ3niRMo4ZSse8//9KLL2LFypWor693Bp5ZIVlRXsaGNrX57u3rRXVVNXbu2only1ewtK4oL8dwnqJhqlkX4ftU12lMmtigDGhWPEoeKKWho3GmgZkxRxSggVysC306pPYJeu/JE604c/YsFi1exIPaCnmbkqLvy1GB4XwZysqL6O07hcqKchw6dBQLFy1ixUdbp4CpmJ+Kz9N34Z9YNmqIJycS2Hmmy0NH1uPxxzbjwlUX4pJLLkF1VRWGqWbpdA9+9OjPcO/db0dVXR2I0jngWyygf3AY69a9gDVr1qC2to6lmqRY++g8qylFq86blSRrSRL2BZSXV/EafIp0xYzlrPAqYbAMhVwZDuzYggPt3bjjqktQKK8G/YJTuSQb8+TNi6GiDHf6s3nLFnz8Yx/D7Dlz0NnZiQUL5uMf/uEfnCiUtSlsbp/ebtNPrs7XJp8yT9yUraDf/S8ZTPk8tm1/DUsXL8Lz617AnbfdhqFhun6vHmxpOcmRA5rOy4mKfIGn69bXT8BgnqJaaqLwvn37MWVKExoaqPOv+rNu3Tp87nOfxbz589F2sh2XXXYpPv+5z/O8HDWvkHAST0thCgsCUToV+ootnoZ5IKJxPMioLMO/fff7KOb6cNONd2FacxPzdOepLhw7egIXr16F7du2YP++Nixa1ISlSy9APi+3GBRHG2NA/qYMBGUREXMpvnfiBFozyTbdtLCoBXdlY8k62VRS7DTroKaq2vGufKOytaUF3/nud/HpT30Kg0NDmglyeHXbNuzYvg3vf/8HMDw8rKId5N3E6ClioG9961s4cvQIrrziWjQ3N6GurpanMU5qnIhTXWdY+FRWVqF5+jR0tLfzQCWa/kjTHDlCyqMjhvHNb3wD3/72v6C9vYOZnMZRz5kzO5gctyFNwbGtAfFkSSQxebn3cITAXSDSSXOoib43ga7Ay0L6PbgYP6BWUCFn4yqZg4ojVf0rRxzpcKEDW19fH2rrap0rrrLxIl7ZtJmHZtFo7VWrLuAx2fPnz0N7+yk0TKhDeWUFWk6cRE1NDn/5l1/Ct775DezdvQszZ85FWa4fe/bvRMdp4K47bmHr2LVUJWrkebGG4dMVSDRs9lTMClFLpdocEasbd876ICJQv/R//zXe++CDmDt7Nk62tPIE0gULFqC1tRUDA/2YO6sZO/ccwKTJE/HjH/8YN958K3pPn8KSpctw5PARLF26lA2GyqoqLFq4CEUM4VOf/BQ+8SefQdOUJrS1tWJg8Cx763PnzMPx4y0YHh7CkqVLUVlRGZJbJt2XREtavmiGDtESw5bLYevLL2PfocN45wP3orOjB0ePHuXJqj293WjvOo0VCxdgz6EWVFdX4Jmnn8CM5mk8FG3hvDloaW1HY+NkdJ7uRn6gH/MWLUFNTZWubQqqc+WvRfGJMcLdcwvBRgKCFF8cnwyhrKwSv3zqYZzqmoDB/g4sXrgSDQ2T0FfIo7KtEy/t2Yu33XUnjrV3YfGcyejqAWooKlJWiR/96EdoPdmKP/7jP8K4cbXYuXMnKitr8Nzzv8aceYuwdPEydJ1qw9w5U7F1+xEsWTADLa2tmDBpGhpqK3DwyDFMbJqOylye58LMnzePDfNDh4+g/WwvhrtOYl9nH65bMhs9xXJMa57Khta05ikYGhzCmTPdWLx4CaprKlk5kvF+19vexg7e29/+dlxwwQX44Ac/iH/6p3/C/fe/yxYi+rFQJ2indEtmueQeV079brDvNL75r/+B33nX2/Hpv/gC/uSjv4ezfQNYsngJOtpbsXHrdiyetwCNDQ04i2GcPnwMBw4ewO1vuwNHjnZi/sLZaG9vwdO/fg433HAjFi6cwzqO5uKsveJKrF27hgf33X3323D77Xfg5z//Oa6//jqGjY2DOGWjKSwzbJlkrhvSiTcuFN+4oi6PXL6If/zaN3DtjWvwox88hg8++A6MG9+I3XsO4Nnn1uGO229G99kO7N7VgpWr5mDmzHloJePKjSCIApfV85oryPIsF6UrMVfXcNJMYyxYY1ZEF424uKBQZ3dPN3s0UTKTnj3Z0oKHHn4Yn/3Tz2K4MKxqDUhwbN6Mra++iv/0oQ8hPzRk9JYSOF5SRns+RXz3u/8KUkgHDx7GA/e/E4ePHsErGzdh6rTJWLH8Avz4xz/CO+69DwcO7scTTzyJiy++CLfddjsuuuhCnQnLYe++vfj617+O//bf/js+/kcfwwPvfje2bNmKP/nkJ7SAoWgElJWpNRJtR+ozhM5VWEwfpK7t9KxmAUSqU+WHIQWviniCoSvGsyYUE1TUYVVThOMYU9xWm/0JJ7HiGL28nqY+XYdrw9hBWesYnVK3GoRNwqM0Y4MGYTH96PcRXdB+fvqzn2Lx4sVYtmwZDh86jG9+65s84jtXVov9+7bj3e95F/7jJ4/jxhsuxk9++hyuu/oaFpKFoQKGhk7jzrvfhp3723H3nbdyfs3A5oTZfFqR0jjLYNH2pqLiSNhMTk+l5lQiLVBDo6lJiq9Cp+eeG4eG1Somd+3gm97x1//9r/DeD/8nzJjajG99/Ru4+fZbse3VHTh4+CBuuuEGlA0P4sCJw3hh/Uu4/JI1uHTtlXjsB/+KYt0U3HTFZdixeyc2bdqCq6+5BpMmNeDKKy/FF7/4Bdxx5z3YtvUIps8cj40bn8YNN9yJ7du3Ytu2vZg5fTbufNudWLZsuZeKsbaw8uMMbAm05PIJuyUie3I5vLZuPXYe3IP7HngH/vyz/w8+8amP4qH/8y+YNLkRl1+zFpNrJ2DDtq3s8d1y7fWY0jgJW7ZtQv/QED7w/vfjf3zly2iYPBtXX7oK3UPAjTfcgBx71yrqOFo+YR4OeLZidPp8MgzkKvDLp/8dyM3CisX1+P4Pn0J351n0FYr46L33Ytux45g1ayY27jyEhooO9A42Y2oDMHPBfGx+ZTN6+nrxgfe9D7V1Vfjyl76EtVdcjTNnT2Le4hV45onnsXTpLHS07cW//2wT/u6Lf4L1GzbhJ0+8jLmN43D7Pbdh6+5jeOmpX+Ga667BsmVLsPrii/Gnn/scPvz7f4ATe3bgTHk9ans78dz6DVi8bDlXJyxctABbtmzC7DkLcP1112Jq0xTki0W0tbbisssuQ0dnJ66/7nrcceft+LM/+wu8/e1346GHHtZpES3tHaFvVAfX4ulkR0l8ooqty4p5DPa24+v/9ig+8MA9+Oin/gyLG+tx6113Yd++g9j56kbcdNfdaKhpwNnTp/Hvv34Mn37fh3H0+BE8/eKzWL7sCnScOoqpUxsxNFTAFWuuxIJFc4BiOQ4fPojly1ZwBOaB++/HNddeiz/+40/gC1/4S3zmM5/h9DKlq032TdPraGmJlymBT4JOoltpZW+iDSNXGMbH//DzmL9wFpYsWYp9uzdi0fJLsHP3QYB6FxWHMGfuVBw+1Mqpu+7us3j3A78T3QdBXqrYRxdBUFWjKYHX+SlXPdjdRGSx4/1bUgQ9PXTNsVqFlJzUtnDvidZWfOfhh/CZP/0MKJysApw5bNqyCdtf3Y4H/9ODKoIQerOvSSk8+fBDD+Hi1Rfj2//ybdz3znvwg+//GI2N09DYOBHXXXctfvTDH+Kuu+7Crt27sGXLZg7p3XDjTWik8c1stSpFPzREEYsCPv6JP8ZXv/pV3ntFRYXvoZpMnsIjEZuiI52J13lcFfpwDRrVT4ILgbxgoJgAvnepIgCBZGEoLBCpwaPVOhcgRavFSNtLC8jwTzTXuJEQ5mwftoGBAU73mEFbUuNSLGL3rl349TPP8ITNK6+8Aq+++iqnEU4cb8O8+dPx7LNPoLu7HLffdg1+9LPHcN+d9+LYiWNYtWolXtu6EeMnTkahqh7333cvKwWbuw4UZmpMxDuIQYszABtrwjBsPoKD56bCu5rLIvhGfRNpOLt8Uizib77wV1h0yUVYumABXtnwCsaPb0Dj5Ml4ZeMrWL58Kfo6O9GLbmzfewhXrV2DKc2z8crTj2Hi9MVoqAAapkzB+o0bsXbNGpRVlOHaa9bgr/7qC3j3e+7HX3/xIfzN33wW//sb/xNLF69C3bhqvPTSZlx22VrccP11mDhRjVz3dsopBuN3xxJfHGwiCwplOWx/5gX8x+OP4N53vh1PPbURq1Ytx5GD+zEwOITapgZctfwi/PCnP0D32W7cd/c9OHbsGLrOnkFlTTWmN8/Etu1bUVHXhFuvWI09R1txyy23oqKcTGGHHyU/r3O3nrOkJYviCFMZodlW3bDQP/OuG7I80s3fVLSKmsqV44knf4It20+gJncWKy+4HBvWrcfC5Utx6aJ52H24FYePH0a+rA7ja4fQ1pbHYHcb7r7vPqzfsBGdpzrx3t95N6Y0TWCnqeVEJ1ZdvBCdZwfQ1dKJ2poKzJw2Ab94fi8+eO9VeP75dXjh1RO46ZKLUN0wiJ7CJBzeuR1rr7wcl156KRvbf/4Xf4nrb7wRtchjf/spvPTYI2icMQtr116FU12t2L/vCK644lJs3bIL73zXO7BixWLkchXo6+/H7bfdho0bN+K+++7jOoQ9e/bib//2b/Hh//xhjROdKpCiOZFLpthYOXs+vqXOTYxwS0ssObUW5RD6QDe+/LVvYs7MZuw9cBi9nSewcNkqTJ48BRvXPY/ZS+di6sRG7Np3BIeOH8Nnfv8P8ez6F9B1qgPTps3F/PkzsWnTKzh9+ize+a77sWjhbKBYwVN4V114IVpOnMBHPvIRfO9730NfXz9+8P3v47Y7bufwPclcFSnTslJkgNxSCPqoEVwg9K+uqY6dzC04+Ob0Un4Q/9///h7+r4+8D0P93fjSl76Eqrp6VNVNwMnWDh6dcM01l2DP3qPIcR1XHgsXLIu5xaABMQaCZnV1pkpJCutHcT4Vz6givrLIynSjyOlqT7HI4ZyaamrTHBSGihlPtLTg4YcfZstNiqtIH77yyibs2LEDH/jgB5GXFINTPBm1t7b2Ni6moXfS1crWkye5OI7ygBMaJqCrsxMNEyeywUFjpc+cOYMF8+dz7lMKHRVBFJlgPvXJT+KrX/t/dT5QjCkr8k0Iis/erWWNEo1xcjTjswmPKYtbmVZ+Asd9p/ouJXWuV4hfJ70Ww4dTIgj+p2p9MsYO7j+AispyTJvWjLNnzvI5HTp0BE1Nk3nUNuXRZkxrxKnuXjRPmYbDh46iaepkVJfncLSlFROapqJp0mSU84Ax+5b4mhONhzQGT8K3STal4zvpSKxJETB2A3trPXYMLadOYXx9PaZMbMTxE62YN38uTned4SLg2VMbcailFeU1lZg4YQJ6+od4zPrEceNw7HgrFiyaz2PKx1ENQ6GACQ31OH78BHp6TuFHP3wEf/qnn8Vf//UX8Z7feS/mzJ2D9pNt6Ovvw7x585RhHPijyF0M3yjjStRtNE2KL0K5eZzuxmsH92Hc+HGY1tSM48c7MHfOdPT0nsWxtlNYuWAODp44zvVI0yZNQUfbSdSNr0N9bSUrjRkzZ6F7oICp9Q3oHhrGhIm17BkLH7tbj8N3FG2m8UnYvFPJ2q6zXdi7/xDm00TayU1oO3EC/cMDmDNlEnqHcugf7MOp092Y1NiAgf5B9Pf1Y+aM6eju68dAfx/GT6jHpEnjecQ8VWBMaRqPA0dbMXlcHfoHBjFn1iycONmF6c2TcejgQeTKatDb2YbHnn4UsxdfjrtuvAJHjh3nFENNTQ062jvReboT06c0ob9YxOn2NpZ3kxono7XlBKZPn4licRidHacxY+ZM1NSUs4FA8vDJJ3+JBz/4AaxeTcplD6cZKI1LMlZJO6v61V910agujjUy3xQEW2dSOYvSS0Lkp3aatOtOlNXeeRodHR1ontyML335v+L+934IK5YvQP/pfrR2n0Fz03gcb+tCTWU1Zk9uwtG2Fk6bHTl8DPPmz+J03NDgIGbOmI2qGlIgFZw+e+KJJ/DRj3wEN918M5584gl2HP/u7/+e63xMAa+ERSNEN+tKYyjHKX+xLt0wVHixNIkUlLn8NseHoQKS9vYuTJvWyMbAkcMn0D9UQFVtLXr7ulnPNk2ZgN5eVVgwrq4WJ0+2xRkI6pBcA0GUi7JyVP7H+rNK7ZBXTbl6EtqPP/EErrvuOkyYYIs+QkJEF/t19/RyXlDrUDdNzNZlBxUp/o+v4Lbbb1PV6NqCPHjwICY2TMQD73kAhTxpPxWW5hscejEbMFbbzQ8No4yr1chiU2EiddNAqnbLUCgMcwiJirbKy8v0UCmqnJYrLRRaznFEgJjh937v96zSNMXmykP1sOQYmnHiUURpWK1oxjKH7npoCjZmJkMV2qvR8ZZIo0C/RPOtPk5daOEo0jBxWqjEIXCNaJcVvItDLi84xEA5ciqysg6nXV9cM76IxUanSt/w9VJS+cUylJcV9JkRCZAhV4lCcQjVXHhXRJ7OUKdH2FcxwRYxl1xsWzOVacd85VwR1XuPhy1iPcGnIEeQ7tQVaAdVH1XwBw4tOcvLX8uLOfQX86gko5wLB1VKQ6reK3I5DBaHuPCsLEdV/2UolFWAuI4Kbjn9pYvclJIkDi+g63Q71+U0Nc3E8WOtaJo6XU9yVcPaOJVGFfa8Ec1HOlzs5xdcdenCFk1LIuBIUVUM5lEop/QX8T7VD1Bx2qC6BlcOVOarMMBXzXIoKxQpYIpiLs99Bcrp8h5fmCpHRaESffkyVFVQi1gduTG4TMf3WPAJ4Z4dKLraqImrggtv8yjnCFc5y6+8vhJKjhYVkCra15VgvHWqp6EQJN3WGVYTd1lgF1BWpHcUkNc3Hyq5bmoIu/buwYJlK1BNt1hQQDkVLBIOdQ6I0shD1L8mV6Z72ND5lmE4P4SKCmUUkMdMRYv5PNWC5bjotbWlFU8/8zSmTJ6Cm266kUWBm58/J3wi2qdMwUonXU6K7+hRNM+cg/IKSidWYpi8Ybotx9fby1BBuC+qor08wVJG/69uRlEhZo5vj6iCdZL9Rw4fxTPPPoOFCxbgqquuYoeW+MWkQ/kmnhEITjA4wjGIlAH6t67IM45yOp+IHeDLXBXMtB63Moc54kI3OahQr6BkRJ77HZShWKAzBvLDhCfJTZPuk8udZkH9Kq/PgVxz1EzuXIlikswX0dZ+Er/61a9w44034dlnn8GkSRP570TU5vGAuciHQimGXrrFoKY5egpdq206UDIGyJuXJVR1bRkXo1RW2SIpq3dc7SefWtiUA+EcoiMgPUNG5zz86IHzFrmyE4CN3yQXWA396Iyk61mxwaWvAJlrlhHmqOfmOAWLRpELiegq8zjYPN0rFekOfpzvaWmWHeYzzTzeZyL4k2FTyj+CaQD0Dwyghq+5OrkKfpU8r2BTykgRtjF43HPT+7S8ofakFJ6+peKE8XyBr18fC1uwpFpfx+TQTLL1b47O5M/CyoixI9ezDH044deQAJHsNmNG9yXxg/rqLQp36izdHhFaQcqevPWlk5x7/daKIPdqnQ+bR6QeETt2ljEmTGg5DrYkPtEny2dbLNNh50CZtHPA6jlSFOeDT5JpSZ+YaQKnHJSizrwp10vxiz079ZlcO5cLX7og0mlnJ0g3tCTqi65EcnsLr3pN04ZPS8E8r0WjETb2kqRTpGcToi7lJfFJ4OCNGAoKQkt7QT5RtCit/nWUVG9TGtlp6eHJF8YPW1UWzyKfgrvid9ArmGVcGSa3OaR2Kps+8X0Cz4u0NnWEPrFyeHQy1+VfiwdPMRjrIrFRkghXQ686nOI3KgHnaX7x2GMcin9126u46MKLuBBwzeWXo2HSRL863dkH2yZ0zbG7l4vUJBzPHqJz7duciXgmQtZ8Y0EhOKDDROd6ISqRN9woSf/hI3XPPFqHaRddVw/ofJEwjjCvstC0UOWAhnirus2y89Ioe8S7HMD7sF6roWP9uRq57TTUsQ6ght290SvJDX0DRRfomZoS0ctW2mt8Km9dohMCm3OPxUpC77eBgjyx1SS8qP8tpyA1CGH2c/GtXyB7d3IFNv4jtpaPb4+W3JiOY1AoMeHjzLoGIhciig0DsBkZZ4S7zcGaHhvm3GyLXF5ZWouzELe0JFe+eI+6LasnSz1VLEdCsGjB6gSFLJ84Xr++EsU0JYYY/UXu2EvRJUXouL+CXtfqWumGLJLLC1gF96yOIMhovlnnqQTnUftX7faaKlGrQI0Qpz4IgcZIpiWx1gv+gLjS+UQAdnk3iZaCASNX3xjYdPMio7xcOnXbz0s9hGlfrAPNMReeSB5Z2aceEnsphG9Xb7r0FZKPvjr19Zqmb2Zsp8merjlwBbcUP5vW+nLTTfrmcD2W7qip5b2656/5xLtNILA5Bo0RlvLjCHclRg+YunznfYweRppvvNhVHSGXhU90Qbsrk8eGT7RUdevAAmeonIdg2YDuHpLUByH4I4tuSzEU3vn5I49g7uw5HLqhsDylBA4fOYR3vet+NE5qjC1YUPdIC+jt7kFFpbo6wyxq5Zqp3KYPuUGOg2xfoOs6aMmz24J4I/Q8maSBCduw7oHbWxjKGAgriJDwc808j1F1bCQQwVcOnHS+Ehtc7UGFuK0wVufq/K+7vlg6mhGUByHrOL1BtIfsvMEzkCSvKu/mvbmejH3AUQojgM25sUAGAtWDuCkZfqdYqIwDSh1oAe4eUVzkhzEYPF23Vt4aHG5dgqdrw8Thq+LA9+G3+aTvfe/QcYR+11retfqCT0XB5vtwXqAv2JfAt5pCW+CVHIaPVgP2ZyHY4vgrDaeBc1PUbn/k/02QKIWejkLQsmQ05xl5LmYDIXMyTG7uAmlwB50iMVjda9GG39XZmPw8O1oUqVX9KgzvegcY8CC0hEnclls0blDr/sLKJhsmdiLbbqOxWFoypq7+S0Dmulwsr3NJUwlm74aYMcQlHu0ayBxFyiZzrejVMtcEXyQa6UY8JXJ7jmSuyGBj34xA5mbWJ3qMAWfUxQXXxBRx/JqUosUYWaXrN7yMo0ePgQQ95aROnDjBhRxU2TqpUTWuiRIlKoJQBDXKkeYfyjJzNYD6JeWPVAcx30xRUYGgINVQaOLRTxihK+/1d+XsUpRr6EqFLwPCX1vs+QLWLSHJVsLnG3kRv9Egiw7VdqJBc8jQN6focpmrpXycJ8ImQsthaQlee/nGAMl4J+fku6kPRW1tbYjAlMFAsOdN8x/xcEX9Rwtxt8Q/AhMJH3lRGTegqDv3uUF6991BCtdUK/dV7PUch8E8XtNbtltzacn1UzLSktOSmz0Ec1XS/j7GYVKU4hhwmWEL0phGUDKfjAA23p8NG6reLL5iUfUQ6pmQ1y7MYm4uBP1ABzPe5kukJTcNHAhOZ+UTy5X+udsdKwmgKy/UG6k1MMMtJxdHdBH5tEhJ7SrxFMsvQuZGOZbR2iQCYY6PLtgPaADGrOgBI9GMNxjUF2HdInvJJnOVCeZKTvf3YbmUTEtRMiBKV5pLH5EyNxzHCO7J31e6PiHaoZ3HtlqWjUvoM87LoiKa733vB6ipoUZHqs1tZ0cHFyvee+87MJE62/EZ2RWNa0JRgQLNYuhDbU2tahsaOi2xlsmJDAW31f1/afuqJJvBrxcCknPiSITke1WBhsKEZigJZelIholmSMtkj758q9FII8536oEbutNclMJWCtD2HXBqK/WeZAZDMBzmMr6VPIaBJC8nXqJ5nFWFbs/qSEnXutARA+W0qxCeAtm6AzkqcGF8OYXqIeWgdqPe6MxW0mSgOqJScQzdBlGzGIL+Nr+Xi7WouK6cc8gUInVsdBsGVw8b2DwWMMi3d67FQTaw6Q/07VIT+bXnFlanPmyOC+jg21zLYqJzrjQGjpDRy/UVKm7HX+tUmNqTC5sjEAxdqxoDoSHVOtd5ibt9TXdyQuZ6qas4vcE3Ee5trIT3v3D0RYTqiXRRI1cOSw8xEOSbgBoKXrPUX5tIq4tvnWOUmxPSOlrlapP5hMtfpS+S8Ily72H4xJF+to2tb5wn0hKznnQMcJU1FU5TESadNNVhWeNfNYxzOtNquajgT6ElpzeBzyeincJyKZJP9IdRsLlp3qgDN7I7lk8Ef9Y5dPkkLmwdK3ON3omDbTQy170Z5jCiIyeUno2TuXLrPebcDAKTZa6dPxQ0EAJywkqgpGFNivFcCyf6IIs8j4AiByyi6eoiVf+XlWNc/bjIK1CuBucUQ2+f32pXJ/SkJr+7txd/+Rf/FQODA1ojKTFIVxH/6ON/hBXLVxjjIiAm9Ks0FMQcbGqSYaI8DN63+z6t9dhzFS9EBK2kOVgo5FTbX27xrC0MyeTonK0Ug4jhw3szIfHgPXwH08xRolDiLV4FnIXNDwnbfLqrG9QvArl2dx0tD92UldH9xhBzKnfTFEVQQ2jYbM90FUEKtVpmQaZMixyGqcYb5VKM5OTKQ7DJqFY5eScapfqyc8d23RFS6EHsHzujgC1oDinqoToG1UF8ez6Ajn5pRqUqcnmc2rqKV69dWiOoPdNI/UDJc5+aTataoyPcc3BENP9V864tZ7CdzM15i8AXk0RTRsA9iqYXj/oCVJAmNcJEk/0XzowMbcSr1sKR0sk2utOGLlWvq8iCViySinTYzF5hs4ZtUE9JhFCwro5LPyVre6SibzUpVzfcNdStr9LOin7UKHQj1nmv6oaBmr43jFyuRhu1mrclpx3j2UXRkn3UpTv/ZNx2yfR82HAzxKnoVxvuam2JmyRKaecgdX2ZriMJyzf9fhNpJImhdsQttrW85U88x1GdPe9Ge4v0tcy2MHjm4kTLt7boURFLUPa4Hwg98DwQLTtEH/CtCT1Tg/vX8C0LUik6daHlFEMnTp5eRPW7cYjV0JJDbDoxL/LDhc3p4GeYX80wUTfzuFZEZJ3SgRHx/BR2DzJzKnPHPCChfipopGE9IkClaFC2Rm7vA4QAACAASURBVK12v/7P/4xPfupTHrlT05zNmzfjox/9SEiYGhAC73YvbfT19qGmtoavuRg0SFFTUIgC7OlWVFTi8JEjOHH8OK655hpuM0q9FObOmcNEaLpJcrQjmhEc+R4qcgkSnaIHP9/kHo98b31KsSJt7YDRh05/blcHGBqMqNaM9MS1AjJXBnWo1vt5mH1MixnhLl67WEQfpZiCsxh0MaKaGpfH8ZY2TJ/axFdTQ2jVwv/w4cNcHDt9+gwcPHQQw0NDmDtvLhobG/nd3d3dOHDgAObMmcPttA8ePIA5s2dz/vLwoUOYPmMGJk2ciJaWFjQ1TUVlZYWu/M/xLRq6Z09d7nLl5RgaGERb20lMa25m+qEW0MRo1MSJYKKrvi0trXx//dDhw2wA8bO5HDd7oitUM2fOwunTp7lJ1NRpU3Hi2HHUjx+vrwYHxs3GqEA294rgQWbUGnzChPGYO3eeT3t6yir1myDjvX7cOCW7pbJOe5SxrxjjL1LlRcL7zG+N9pR0UpjXxAslmIW/qYkSnT/zfKHIXVFpNsvx48c5LTpj+gwTovfM4CIwODSIaurXojSOR4bB1GcQBNkL/YrWoa6gpCSopwT9tqqqyqgcNz0paZKjx45henOzMxZdD36iq5EYxoF9LdwFUJmFehZjsvgZ8amGjIsQsPHiONqMiy1TS92jnOupU6d4Ebr27sphTjVppUqyet/+/Zg3dy7PjTjb3c2R7iVLlvBtO3L2SIbQ43PmzMWRI0eYX2bPns3tvWmWyfx587mxH/H31KlTDV2RbKHn6dlx48bx1WDqMDluXD3qx9VhYHAQhw4dwvwFC0BzUciMO3rkMLcBpzkjZ7q6sHDxYnY6CRaSU/X147Fw4QLud7Fk6RK+mrl3zx4sWrTY3CJxI+Yusrhez/2gCOzdvxeLFixEZ+cpTJw4kW8BsqlJjf8GB5kG1VAwMTa8WQyRNV365AJekid+Itg9UQJYm5MUH0UQOAete/GbegLudU17KrDwe+ihh/C5z33OTvdDEZs2bcLzz72AP/zYHyZYshpL2kKn0cK7d+9iZUBdsWgA1KmuU5g0sRGdne1cC0HNQPbv388jqKdOa8bBAwfQMGkSHn/sMVyw8gJWDIsWL+ZGSidPtmLvnr344IMPoryCGNNpqOTXeYURHCiws4znuR6ZYIu2RUo8N21x+2kafeUtEKkIew4hSyyQ7oleh86fDDUVQRC73HoGSt7lse7Fl3HhygtQXVMF6psxODiE4fww3+mfNq2JBwsRA1Ljl8bGSZg2dRoOHz6E8ePHs9Ag72DnztewYNFCbN2yFaioxaql87Dllc0or6zEqosuxvPPPo8LL1yJp556Cm+75x7U1tdzyP7kyZNsINTVjcOMGTNYqLR3tDP93XH77SirKMdL617E7Dmz0dAwkd+3Z98eHDx4CDNmTOfPqF346ksuRUVFGZ588klcd+31fHecGJIiYTfffDN+8pOf4JLVq3nIkPXNtCMUjieYT4iMXtm4AQsWLWIBMmvmTH3Hu4ybSVHTpPxQHhMnjOdZJlU1VTjT3YOZzdPQ1t6JoaEBBVdlZfC1vjfnpCyCd2RCIj5KBjjRM/f58KP+Jz3d3Rz5Gc4XuKEaCWsqfp44sYENuLaWNhaYkxob0dZyAsWaakydNAknW0+y0KN5FIRnukr92OOP4fd///fZ0O/uOYtjR4+xkT95SiPfplq8eBHa2jrYgKOGaYQQmkNAMuLVrVtx5x136iiUpDyVQa5Ac+IJPgtr7lFm+f79B/jMiZ5Od53iRnDXXnMtTpxQBiIpiYG+PhSrKtA4fiKouRsZlddeey0rnfH141BWUUTPmSLG15ejraMdmze9hvve+XbTJ8Qv1fK51WI3zMXKL/Jrul53uZSgTzjKWCzD7t07eQAfzdSh3jukW9rbOthoJ3leVVGJ7Ttew8IF87Fz1y5ceOGFrBQ3b96Cy9dczudNxvqpjlOsb4iXjx07isqqajRMGM/f0XnR2tTGub93ALfcdr3y+nNFbFj/CpYuXYI9e/dywX51VSWeXfcMli5fjfkzpmHfwUN4dctO3Hb7zSgUqVavEj/5yX/g1ltv5WZ/NNOEIuWL5s3D/n37MGHiJG4dQO977pln8Y533IczZ06zDvrdD7yfaUSdkxM9c87N1NmZSEkB//T1f8Y77ruPG2PNXzCX5whRD47qmhq89OJLuOXWW1FWlkd7axvLCWowFpjFIGzv+pcSb/CCaXEOeqQ0ixMAZMETgw/09/OELBWC17lYXWBEDT1ajrfg2w99G5/77Gc9Mblp02a8uO4F/MEf/JeAfIp4o7aoHvnFIywsaOgIDTu5+uqr8Msnf4k1a9eg5UQLfvHooyysSWGRAdDe3o5FCxeyBdjR2YHpzdPZUiQC27rtVVx79bX41a+exM033YJybiai8oXKS3a9jHAe14Zus+M70qS2blUgLRQjAIKVwU78NHjtK/w+BUfo6mCgKj4rbKS4+/tUBMHDF0/gU7m3XPkQXlj3EqY3z8CUpqnYs2c3Tp/pxoK5c7D/0GFctfZyFvjUxGTdCy/gkksu5cZbL734Mq68+ip1JlTqWMgzLVEb0n1Hu3DdJYux7ZWNWL76Er5503O2D4uWLMJzzz6L1asvRV19PdMnTYmkSFVNTS1HJKZMaeQU2nPPP4s1a9ayMUn0S8OgmpunY2hoEAcPHWbDl6aF0jhc6uGx9oq1qK2uwfd/8AP2Wqh9NNXfkGJesHAhdmzfwYOo5s6da61aHaZNwjcJg/Ub1mN4aJgnNS6cv4CH9LS1tfGgMYL+6PHjWDhnHjo7OjFQGMLiJUvR3dmJ/YdPYOWK+aisqsHUpqmaboXnVYpFkUcGWgp4LH5IOJQwMSHoNFoiL7+6vBJnhvoxrrySozVTmqahtq6GvaoNL7/MipXGrk+sq8PzO7dh9bIVPCtg8uRGpg3yEGfOnIHvfOc7+N3ffS8qKqu4y+DkKVMwODCAbdu2sTHZ3NzMg8GosRDJAGoB39V1CnU1taw4rrjyCtVTw0kjRru50XxCMry/vx9btmxh+bJ02VI2UuYvnM/dKal75bi6OsybMwfrt72K2Y1T0NA0GRs3bMQVa9eygXD02FHMXzgTtVVT0dl2GDNmz8JTv3oO77r/PjZe5E8gQWUNSic8LjI3Lj0ZbTFG1aQkeYXZ5VvkKkHfw9UCOhW5Z/cuDAz24tiJo1i5/ALQTL+NG1/BmsvXsFymgUv0hwb1USh91pxZaGs9ifKKCkyZMsXkC+jcX311G3dtPXO6i+mfJjxSFJKMtAtXrUL/wDDWv7wNN99ymQ7N01C5V7ne7sihQ7h09SUYV1+D/UcPoFjegBkTa7Ft+w4MD0/AhRctQFnZMA4cPILe3h4smLcAO17bwXNF+oYGccmKC7Bvzz4cP9nCqF+xcgXWr1+P6TNmYqC3F6c6O3HnPXcr40DrSjlvT+ZKDQ4H2ApskG7YvBnFfA4N4+u55ouiIxTFIieNukleseYy9PW2Y+f2fZjS1Iz88KA1EOKOV6KQwXBFSvQ8mmcCn6prjspAMFXsmvFMHrBY5D4L//Ltb+Ozn/2sN/988+ZNePbZ5/Cxj/1RXKTFeyO964Xnn2fEkiClkOv1N1yPl19+mQmC+pz/6pe/xA033MAeCu2BwsM0sInCgsTI8+bNx2uv7eAwDw20oPnnZGDccustHP7j3JfkyANhyLD8TAy1ZMKhJY4UGyngFZS0eIkPlwKV3GIh69z1epj+KXR+vAUTJ1Vjy5ZtmDVjNhP2a6+9hkKuEpeuWo5tew/gohXLUF1ZgW07XmMDrmlqE1vyJGgpUkSphvLyCpw504VDhw5zO9iXNr2GS5bPx47NmzFrwTymsQsuugTlFTk8+9QzWH3pZawcaFok0T4Ziq+9tpMNw3Hj6lgQkyGxZs3l2Lt3L7fDJU+UFAh5rKScKTRI7VnJQNizZw+uvvoaNvgff/xxpjHyaF98cR2mTZuOrVu38L6oYdTcefNCGE8Uv2QgrF+P2bNmY9/+fRwmP3b8GAs+ms5I3UcPHj2KBTNncxpioJjHypUr0Xb0OE529WDl8rnsnU+dSiNxlUfkBdCDLx9jWkpTLQf27+cOiSe7z2DG5Cks7Fpb23mIEP3ZtHETj4IuDA+joljA+gN7cPnKCzE0MMBOAA36ojQORUkeevghvO9338dGGUWcCEeUUqLUEJ3v9OnNbAwNDAxyeJhauHeeOsWN39o7OjjCo8Ziq54Q0uCtFHlIKUnyACnMTdEzEuy0v7raOvZayTCh6Zovb96EidW1aJ41Ey+9/DKPUqZIEDkqs+fORlNTMw7v3Ym5CxfgkUd+iXe/+37T2j5w2esccvAYLF2KwAi8jkL9FM072dqC2rpK7Ny5DSuWX8TdVHe8thNXrl2LfmqjPHMGurpOg2iJaJ9kNRldFD2gSGRVZRUrzK1btrATQBxAnjw5kyrdcJgNdzL4aW7DhvVbcf2Nl3KzpaqqavT3D+DgoUPcqXfR4oWorCzDgUN7gfIGVOeGcez4CezeeRxvu/tWVNUUsX37Ti7mJwOejJd9Bw8wDc5uno4D+w6gsraa/0168ddPP426ceNQX1mF1vZ23HT7bVyw7dayhFlULsTryo9iERu2bMb0pul4+le/wtXXXcPdZ8nSHSrkcfrMGVy6+iL09XRg764DmNQ4nafA+p0UDfJHeGIxP4uNIPA1R7AXxTUI+o8Ug6jQXZFz/P/8z1/HZz79GXNniZiKQrzbt+/Ahz/8e/FU6r68WGQv4Omnn8Zll1+mvMph1XuaDv6nP/0pW5t33n4nXnzpRf6MhPajjz7KiqFhfANPf6QbGzRE6P4HHmBPY/fuPczQxPSqOleL1zgujcLTSITwCI8pUvvQh6k5ywwvLBE2CgH29vSx4vfyuNpAOH32DLZu3YCFCxZhwoRJ2LBhA6ZMmYzq2nGYM2M6TrS1Y+aMZg4DP/bYY+wRXrByJVpayDNeyUq7o6OTc4O7du3E8ZYWbgk7c9YcbN20GRdetBIH9uzE4MAg6sY34sKLL8ChAwfRPH0mDh89innz5rLwIOYna3v27Jkcgm6eNhX79u3lfD918qQcZG9PD7pOn+Yxy2RAkIe6YP4CbN66GbNmzuIRxLTGnt27sXTZMqY7ElgkCCg3PnPWTM6r0ZAl9ScbvokXjhw+zLBTfpRGlJORQue5bOkyrFv3Ek6cbMUNV1/DBmx3fz+PDb509cU4fqwNU5smsEAkD9oWUmYiiDDfBZ3FWM7MBhvBwKHgDRuBmiosX7wEmzdt5rDxgoULuI7g1a3b2AhcuGg+dm/bge7KHC5cuhz79uzhlBOdPY2MpzAuOQhrrljL9SQU1aHQMXmHZEhQfcGKFSuxffs2VFVWs9Hx4osvoqq6CosWLOJx2IsXLWbngtq1V1VUoFl7pj6Y8bBJfQoZuVQvs2rVKs57U+SC0kMU0qaoB9UbHDpyhGtiyNil6NfyJUuxe88eVhqz585FRXkl+ntOYe/+g6isrGXjRfLKSnmEXZJEhyLTkWc/N/v2DL+JopMMtET4JM+eWj9TepB4q+NUJ5YsXgGq21iyaDGHyynNt2P7NrS1tzO/zZ8/n1tEU26fooOrLriAi+WfX/cC6yI6F4oUUy3BvAXz8atf/oprVZYvX4FxdeNw8NARzJjRyPMNqI6JBldR6poK5slYmTmrmdOehVwVGic2cLHjgX3HMGXqRPT39fB5U2qJUghcx9behuUrVnCb8M62dlTX1XItAynIvfv384wVSpOcaG3BipUrzdkaXRnw4M0FFhbrqofq/kOHMG/2XOza8RoWLVmM7TuoFqocS5evwEsvvYhLLl4NFAY5bV9f34TL16xOnsXAIkruCgeUR/KR+9/yvyJ+IHmSfjYQxqnqYpOH1hWsxSK6z57FRzlvWGGHNSHHDPapT38aV111ZVZxCnoXhYrdoiGpaiahLpELv4pcXY2kIpZyroJWf2w1qqqMlhyktAL2cpKJIj8phpZFVcjv1X8NvmMZPuJ8MmMw3haL/iYZNorq0C0G8vbje1zIGtQDnmZnUJWy7QSoTWmORqmbgZZYh4bVrA1SCEzPBV3nTP3oC0B5udMrm1NDGoeFAg++4cIdKiqSLnS6u6Uq8tNtZOkKmiYKRQdqD0JLRDdynVZgNJX07o2FiGrtJMVjTl3XGZskoK6G5oK4wUEOmdaMG4cVS5coHKicC8+IV1eHVapPmbVCxxoG4d1R0lK6ioijSVVMqW4C6atgpkJdnxZtW9+l5bkSZVwJ5FVMqJtVesycjoDQumRwrl69WtVfMHJs8T2/Uc7VqSxnLJF4okp0fXurVK7wVDff/BrmVIjZg8Y3zzTg+Qc0L4BmCBDdSu65oKbL5tT8BZY7QvrxtZuRkij9fDJxdwwanNVjlL4jucwa9lfxtOEijMcvI891SapxlEKGurGmcCfpX56noG8ZDQ0P8fkzqknGl9PvnWvdGqkK7wrFtPTAQC/PBlG0I11vFf8XCkNMk/kczdEo8FwYejfNfyCZI8uTASI0JDwY5aexbJMbaLG3dgR1/g05WY+wQ/+noty0x2E9VUk1RqJ/Dw8OoaO9A9Onz1Kp2chbDOnnGcsPipmtNIkzDpgXdaMkCs9QJz2dVDF37/l7vmZcxuH8PA1qctqtEwF4Xk+QuyJ2yVdZtFDM4DJ7KzBsDJrNytJJe1acc13JV3hhFjSfhP+Szmj+zlyplsnxDL7ACmGTjgvknu0vwuwa1h5ZYfOLFAM+j8F3QFmlRjp86FJhc4t7PPPCuWYVQBgrDvofskhMHk7fzXeelSp0+Ujq2MSYURQltefuyxWQXICdWKCoJK7pDqfpkbvqmYv9znVl52BU8xW5zil7Vw+YSvoRaI6SZEACbIIz1d/BafvtlPw55TOOWRiBMaYlfXGav1YGBAlv6cnhKhuXz90DSKUl7+yDpZjxfMLX7SLkkr1dpQ0lNy6gjQBFS3pGiaYXMzYgVlJbZSK7DMIWx/FMb0E+UdQa/bYR0JDZXQn6hGSJUt7K0TN6yLtCqg3HKJnrGYdh/AjcSubr77VR5t/sUNOM+Xm+haV4XGhOZIDrTBicxuCK6qu4kYAphE2WuWpbWgYInYjRyDvTXTdZwEg/HwWTljzKiIkyEIxn4hx3iTI5gSwdu1APa+ob6Of8m/IQtB+kvSCllNVgJnNA8jevW1gqJ5jfS/OftKtJ2VZ0n9J2sOPRZSqOKP1FoV+k8WDa996CqQ+nPZD2vSN6dASBUwzpOY4A3NnfY344gp9EHY+qEbKNiQyDB3iGb+I4Xf9skCyZo/wIVriy3KM6cXPj6MjxuOURiTb4YkYbG1oQxe1w9CgMrJBY0zD6t7ln74iX80BLaXt3ZGFChk8cE23XGHvUhDIdsW7O1zu8tH2MgQDKJPHVQ2O7m4Cp4kbTHIXoX8FW+zA8kFArloSZeDjUjCG1FX0QrLBV1HMkutQaivrKe2iVME8pbtZ/XIY3kQhppEVfqqux5jeCxyx9EFLJJ4SpbCQgRYpeq90AIIqiyOt3pkJy6E/uiQcJRBtrCZtWlma4bXPkT7KBYn/KGHYEbQryBFz+bwTsbmjVO/D4sw+/UQo/dYgpbkveXoSBgh86rBV1VFE0GYTNMIg2Ar1GSSOkpVQajX3AfWFptCRpqtilTUfLiCMRpc1CTGZx+NjzijZTFIgn8EIywQoVQ2OamJSnLCTr9B4eXZVbwnGEGUo+EfouSYCWxJ8JD5e0Thx4SSpD/aZk2LQwV6GkOAkgB+4PcCt9l0lcNHI+KZk3RyEDRnWM/OPSZECczuCknW7spgS7jcplY60IhW/7u4X6cAT3YQwK+UIvJ7KYdaA0WeJIou6doeOZosZSGyUFEW7+7XwhDsDpM6fR092D5unNujWoKMtwR0a1AWVl9fXRLQZKMYTAVPc8KffG9QH2eyXYlGRTW5FYbICQ+Z+KuaStOuf1MliNIZ40U9MssxuPxMtCya608BebWU9PM5FfV5A7H5pQqNPOUBoWyZ4kXyw/8xoamQ+lHa1rGvq+ozQutq9X3/P/Ouuorfgmgd2TyrcbQ8A5Rqt7lGiU5kquqKSKcSoEK0l4jl7qlLxCqvg0AsZmJFVHQ7fVqpTZuJaXXTlCRmXYp75S59Q/KM6zEzIsJzq04BK4h/wsYtaROG7inkMkTtolw+7P6yNZFG3qhhTsWbCUupT7QIzF7ctca07Z90fTUknvNg+XDlXpvyh1Z1nf4PT81J66KLpMb0zzeIKLBJ/3/q2Hq7PSUnnxUMQ6QItxTmKmvaftLfC9UqVuWwMrABwNEE4xhI9CxIwUYYStYCqEomYyL730El/tevd73oPqqiq+vmHXi1iZK9ULXE1MRWRGl+tUg6o/UH0R3KIvgVWKlnhnXm9gRR22F7n6RVBgShjXsly8hW+ecYbAJB6coyz8VQMGjFNKFXrOFB05llHS856KdS04x0t0x2FqAPxWuhmYMRNsLnaCa9p71B5ZRlgIArniJfGE3fX0tTz3EJ1Xh6DhsbOqr739IyaZZWb6Tqbl+TLc71DpxOSM7e3l7yOIJERvkbAFpE/EP+20Vc88NKdqCi6N5+oU8Oj6AzH7Qqflvc9XiMrQVi3L/TC3Gz6WXiDR+FZPanzLOiIAnPmNxhDmA/FioA5PK/mQRccZGWOCJTG0lHBu8hXJnEIELaXBZn5vR3lFwBbTlthsVxfI8mKqcFo5TfF8Ekx1xXGoUlSl8IkufHWIQSjSOVKHLq1xJU5blCwN824UbL7Dw62Cqc5M4zZYA5Qos8fe5Et+XcK3oQhAkPwdfggZFl6tgWZRB03CKUoCumGJABkqGRgft/IEWazeKOK5557HM888w7cMqAKUrg5S04gPfehDtjo4iuF0H4SzZCBUVHi7k77VdA2J7pRLb20ZtKSlg9R+RATv1BVJE1WX6VTCRRxY0GkGqWqWPQpKfEx6AsjELQJzzvl9fI/cEb3sVOl56CJcdbMV5XDJPuVXjtdJbzWK0Y5/lkiY3ao6aInmqFkSzpZ56cAtESYA1fTFhGekKo7x489wD8OmFD0/p2dXSBjBML6BTUVyvGExEvvRtGUMFd062SVNe2yiDIS85RJPcLZFibxp6DtowInREME8rr4ytKOFdJAi42gpZZu+ai4RJpkN4hmaaiP0kUDq0olVXiHdH6rwN7vxiFEAjbD27A8czGUwSCPBFuKW/0bPYwg6eckYNLG7UhEd83w8bMF9Re4zCTXMSOYEM+x3jGCL5BP/9aXAFmUEGNmeASqOHWtantzYyFcYLSta+e85IsY4DdBoBtjCW3IgSCA2q0vVTRwvnexEEpSyd+oMjC/luLcix4WvTZG0L4S80p4gbMI2JqUiQtjpoklR4Sw1CNF0aqQ6D2v66te+iquvvpo7Tf3jP/4jrrr6am4GE1UIaJClixSpSUMlXfHRB911qpPvJtMH1MSE/l+GQRkVSvqQB+/QdQ0ZiOGEciW/olW13JiwvpauYTA0ooYzuekI7xSd4hKv+EQC73rOgShGdcg61eAoauvoaGri75RyN2F8LbFV2kT1ElferBsetqJcrmO5fqRnVZrfR6wjlqhLW06UwhCsM0ddvg5Z5w4uxTLjPbmepn4mDjZbta8eVLwjg27UJmVCoqnCdzhBXV2yCPei3e45RAgfi16mKv2ENhAEoV7aJ6BEQ5LRH3fpfZ3RYLD4t2mrkJ6N0y4iiZgW5dqlfti9fMEWQ5SLIvj2BZraU0T6SpbWQ66sQ+lvUP4lsKnnAofjPRSlKfTzBo/0FwubWc5dJ+E1nmFk83jethzbOeyWacqUH2SDLUNdgdlYkJZIHoj20LLGQ2GYKHxeDg/9SaIB9wTEeRN8e5HyEvnE4kkGugTOOsQnYVpiTi0UeNbJNJqPQKDZsZnegonmqK4Hspxmpye6LBI4ar2+kr42qqcDbHLLSYsUwpVbGqhFvE2Tm0SuluaOg++zRAQkkXLAbI9J0+LbTvUVaSeo9jKProHArwxZGn5f7iCr0uMb1q/Ho4/+gofPzJ41C08/8ww3kHnwwQ/qISTivcoW1Crqjm8BXWfOoJruoebAnd42b9mKm268kesOWlpbcPJkGyr4vrHanKQWRISbVUNKWUcRWAErb1kpN7UOI0t4zPWutSQwikjn42VOhLkja2SUrW/g1T05JR62yED9b2PBibVoVJ+2MDVUrvITg8PxTtXXtv5CjBc/hC5erUyotMSnBKneg0wT86IIOjWj9yuDTxSIwStyTvpZcxFHR4SjtOLmNZyAvPq7OgxrFDsRAX3t2xSmRljMYhOoY3SNqUD4Xc5WE7pJU0nlkFNLQYFbNj0pjOwch2DMNj+wnGmt/0AESe9J0ZzFt4rKWP3oGj8u2gy+U2BT2xScyzVN7V17LgXdn9c3hORcPFpSp2YiQ65n4+oWB99i4MbyCZOp7mWg1+MC5EhaSuYTFrOCO2E6Q1c+LRmUeHxiadCTadq4UTedRsgnMrbe0JLvLCTSkmgMwU8Mnyjaox3q2qwY2LwQvmdjRMNmbIzMfBIPmyuXFHtbWSdOj3IKhbkc478UPqHeEMUCmqdpA0HLEqWIlYEviUFRb4rmrJIVGlSfSXmbgk1XE/jReEfh61/o7pr0JkcBaJ0a9k3sM0b1BJWr/rf81nZpsVHTUmET2lNRacfp8AoglX9Ez8b2QTC61HEuYvbPXduoq+H+Awe4VzQ1HqFRz9dec51pyuD9VkL6nGIo4MzpM5yKIIKilrc7dr7Gw2wqKso5ekD1DVSjwAcVyIgoQlOnYCIvxiDQAknPdVehfBtSF+/WhlgdsmGa1bkynTYwytS8y80TOiSgmUtSDcIc1oRTSt00ZZLe7lrx8e/kjnoANjo1MeSkOZNCp83ry9VQWccoaEdJWdh85uPtwwAADhpJREFUZWo9IN1vPgbfBja3eFGbngIbE6PMbYiDzWXTAGyybwObJuhM5yZeqeFDWzugfq/z6K7zLCkQHb61QVntgetCI3PHOoaW1NoBERQDm+SFxYwRW0GMXlNGpNNW2WlJ38NmmAhem94RXhRDrUzuiZvzI6SUmSl40fiWe9SWTxwG9MIRLmyuHDB7EtiiCmFj+UR50JZPpI2M8WsdgW6N1BHxSYCW3GRTJtjEuHYSj8zD0tBqRHxScEpAaAG3DsvKpbAMsCnQSFpy6iJS+USUqTZVtDlpmsal8YmkIz1VXQKfuLREDYiap03D1OapjBd2PrV6lxyEcKRpJO4Y5natwIfqoBwInbfyi8oAxUBsTooxYdII+vHQq7wP/Cowa9A6tGzcf3m/v6KRNhyiyKFY5hjiEQl49x2Kg51gGdtUCrbUGgT5cZxxIJ9Tv/dt27fxIJGbb1ZzCbhzmQn1h1fga46FIk+povG7BBt1PCODgNpaUgSB/n6yrc30h1C8apWx36BCGwRuxEADEF1q4SjVuIpvI03taG62vViC64gGhyHcU9Cfxx1MIjLtQkGy8V5hX69Wi/pSW3mx1ewObDb1EV4q2AREA+9AEXp5DITZYdMy0zCeuQkgpMwkYMnaZ2GdstFeiK+ElTEZqr0ICG8FAJnR9H/kpbkhP3P3w4bs2J21e3IVvAJCuW/WaLJCxW2YYtM2UbCJtHFvmYj/ovcksHEgU/hERd/cFTk8bZYLe5MmwqaFYxg28bX0mRolb1NKJnZjrtn6vBt1gsJaBt82vhU4N4FPYdr6pr73ZsOqgg5NKcZz9c/NP0EfNtWp0D83iUx6dTyCV3MCdk/8N6GlEGxOsV+AluSULS1Rh1AxwFUE0RgrYwJbVj4J4juKluSGk342jU9EFjvXf8O05BfIkoyi8cukN5SK8DDmK8A0ZZbwfaRNETrvzB/4b0paPLAn99ESfmZ53jUI4rbLJGA0Z1jIyyfuN9YWD+slmQ4lrSdFj6uwhohMC6kyEAo8D5sjCLRp085SWcEn205yhEFqCCQfLaES6RPgG1giBPxK4GDOXPGXCG7tYTqKwKZFg+vJFUArZI2w9eWQc6ylHKOou+j78Y6tZwk/YLK6CjPqzcHTDgTiI1nErBNaMPiBCFafCj18K9nmghJiFnPXwHtOAr++STAKnneYxsG3DuEy3TpXUOM4jHZT0LUest0ks8kVeMH0e4iWRgQcvV0MEx0BceonVJGi2oX62LnyxDzhTwV0U0s2dKvoP5aWzLmFMVEyLYVwIAlVDYWTFlOP+sRl3+fmJXwPLQuHZuUTjtC5tTcRe0qiJT+VF2H/05hTRr5Et8JuoD7daO+3FJoKHJ9ElHy6tdjzHJsAUkfPJ9G0RBGDpqYpmDx5ikKLU0/maByjhwyPahEubfF5fyFtFU0ZXJxN3rqOLKrfWqzL34VH5Cq4ivZYg85UlstGQyDq6gZtE3Hlna5tMIZQjI4VXjBt4TUdhtJcAfUskbYYA0HtMGgYyBrxpoSSFkaeShviGGIUpX/2bA+qq6kXtjU/1IG5d0mtEKPIAvXilzQI86HT8lbtT/VY4BW5YYUSeF4Ohg4pUKtjCgJ1db6t5Hdg01cdVRbHKnPj3OrwtWJyC7wrFO0VOtfIkHSJBEmU8Kbe8iq1ovsNaO9P8sNSECnRmkCq2T8TI9F15o/v6esPLXJ0UZsCz9SlmECJFE5a8IQ+eZe6sFJLMI0AhS3FvOYjdSZmNKnJRiofgnqoS7DGeMaaufR1Lm8HmmGZuENa2lJtkN1DoUH/NqA1bfk8HfFhjDJNAyOhJY2QoLkTvjNNr9ZhZE+Q+CLNp2fdF17nG11aIvwSRspI0TCSFWx++NWh7xBs+twMnzjnagNzjlq0WHeVrOJdgc3E5LQsCIhrjlKI4SKwqaPmM9QGmjgjtt20FPvqbxxaYjOpFFrShq3Qcujc3BC9hk0EopWqWhBF0pIW6Yr8Lc94sNGepZW2kjGWTxS/qho9J2IVEkRUV+PIHsMeI+EToSVdN1QCn7AOkCLqBJlrFbidY8CyQ/BNdQg0ZVNY1IhdEVphWlKKWs1RISVPRoZQPKgAnlPgiiaJT1QEyeET3aZcVIyLb3ZcmTgcYUd0p3UCz3Wg8zFX+CVlpChKZs2Qw6zeL86skgE8MsBVaMy7Vq5KRM3X2WptxjcNouEe4xKN1DfWaL+kb7T+jZnm6FusQYMg7d8he8D5gWd08C2GIk9zpAllbijbDrVRwyWspaRAlnXkN7F70l/4xo5u6ayxF2cIue+JsXE8RJk9paUWIvcUjLFITYVjqLEgU4WXfEXT8VI8hRKH78C+gjgLwugaGkF8p+EjCadKJ8oAHh/uCDnlvyoGttDeI87Apz1rLJZKS+67+LcxiEyjySx8knZGwghx+B5L2MacT1IciDTYjJ00xrRUqnx7s/CJuZrtEF4UfZ0PWgrxUNSe0hjW1QOjlLm/kXyiLQZbq+YOPbPX8pJkbmoNQiDyEKsXRvIFKzttIPBoy7f+BJShciFM8FeKEY17fC5P563DeAsDb2HgLQy8hYE3Nwa0lcCKJPlGYhSckREE36qUJjjxJlqSBRKyUAPmab5YwEB/P+rq6mxkIMKsjXxHgnsVt6fzBlsEtuO2+3rBZraYhG/jpiWb6Kn41g8kedxexCZxT+5i8ewb964keo1aLRU2TbmmOVWM3TZiPomjpd9yPhkpLQVlgLbCo8qkYqNXIbYwLugo+UQvPFLYPB6KCsGMlpYStOVbfHIOdWWSPgnIgeA5jIaWEsc9O7ZHki4JbT1MKGHEqU0XQWMsXQMhkv6CgjDBMIij39g9OT/IsmzUOpkFTJz2oc/jCzxSDdg3LGy+tAoVs40U3yZP7grTVCzFPJxlE6lEFS4iy7JsZj45j7C9YWkpShhlxUvw6B0gR0JLsYZelkM/37RUonyLFfRvRNhGuqcgLY1gnTcsnwRkboksol0drY7MuOcQggJVRvzSDOGJGCYO4199wrcYikX09/djnI4gmB26SjMWygwnGwVbxI2KVERmFlAj2VNEKXhWfEd4q3H4FhgjUXIu8e021SiFlt6MsKUSknNzIwDfmJ1byKDOyLvefjLQcRaDd0x59y0+iffG/G/GjJayvtB97hzL3JJhi1Oa55FPzq/MHTs+GWGr5WThkVW0SA1C/0Af6upGVoMwVrSYRa7/1j6T9UDfjAgaDWypv0194M2IsdQ9J0J9rlFyrtdPgv51fHea0kw9tLQHkmBLgzvt+7R3/zZ+/wbBWYKBoL18c+FRXMyonSe415GA6rV1kWL/gK1BiHNK/LsLAV/YeYf/ujgsu5/H/T3W37ZhmATYzJ2TzHWEwX2EXXr7RAK+PQTKL+Kej8YPf5oRtmx0nA6b3fZIaEnjKsNmMsEWcbsl4ia63nIcbGPHJ1lpyacPl/D0NyXzSZRbeO5oKZseSKel3zw+GStaejPxSVhwZuLdsNhMiIEE8RrG828eLfmS1urVaMSl3mJwtaG9yZ7CyhkENUd99JU9SjFQkSKLHi1/zJX8wKv8pRMUXHCLcXuKpzpf1UqUNiNsUa/PDFvGPZl3JMKWfFZeM6uIdbKAK+cWd2ZyrEyMYwVbBm3iN+oK/yArLUm/odRXZoTNZI+yIDfipa8fn6RiwGYizwdsGfE95nwScyZpvsAbkU/OKS3FkUvGczuvfJKwp0hSHoXMVbrPdHAOFcdmYZ3zRUuJBoI/cVydttbffhY/BFEWEBWW1C2GAXOLIV0EJWv+LKn7kt4xUtgCaaCMGAmYdwEVliGVXBJsCba1/1Xy7kcGW8xOR4HvkcHuvjCMb2n9O7K1E63biERh/FtKxnHK2Y45n4yCluJPIAPWS0JMSQ9neHmyLCrt2xKtjlHwyciwkMwnSc5ByYg877DpHUYYCb8VfJKA70wGAv2e+pfZXmjpN4KSiEL2YyMI8TUIIyPmRNM1I71GDNBIk/cZVz43j5WCqXTYxnSPpWytxBeHlz6HL/P29vq9OQpFYwt1Kaul01Ipq6Ue/6gXK2WBUp5N3fnr+sDrR61j++bRnshof1+K4xR8NnhjZtQGZBYlO0qqi+2kSOuaCIJu0CMphvQjDz4RcywR1xyjjBn+LDJ+l76T0N26yFNJIptoWKxlmZ3kMsMWYcnStu3v9d/MBzH4Tt1axANuZ9IMxCUrhLYS9+6ssJl3Z6SlLA5YImyvHy3ZraceWCxWuN3umPBJEi2dZz5xiCt4EYYRkZWWRs0nERUorxOfxNPKbz6fnFOZawkqxg04VzJXrVsKbOdM5kbwiY0gRPC+m2Lg9vbOaAFbxDYywlS87fZBqNX5C9sCMkq5q5EE2hYLAmQwF4jFp8nd4NmPQDmF/ajAJzJ+NKHfQTRsejOxQi6DFo8MZscTvIsub08OXjxrOCNszqgHv3VEmgBPATHEMKEGMdEEEEdLXsOjYIyxVFoaAWwu5WjxYWcksGLUi5ZMS4EzLxW2ICm+jnyi5ghogRRRjxlfVJpMTGNCS29mPomwxM6LzB0lnyiUj5XMTeGTbCI3Qn1l05VvJJmbKxR5BEXkHxlLQ/+VESky8qIsAH6a3HRfYPU4tVouoG9gwPRByIbCuBPyf52+pyBBScMin0DsOukrJtHO+YbNSwTFvDwIG/37ZGsrj04NDQyKBW50eAkK81JWi3w21uArRW2USktxa5e+Thb588agpXPBJ+kpi2wqXlRGWjo0wAGpfDKSeI/8JjtlRz85cloqhU/oWfqTVnQZheEsECbCFuLdLCvGU8Qbg098y3ps9Mno8JJV5v7/H8v69KbpN48AAAAASUVORK5CYII=;" parent="1" vertex="1">
                    <mxGeometry x="28" y="450" width="770.37" height="160" as="geometry"/>
                </mxCell>
                <mxCell id="21" value="&lt;div style=&quot;color: rgb(212, 212, 212); background-color: rgb(30, 30, 30); font-family: Menlo, Monaco, &amp;quot;Courier New&amp;quot;, monospace; line-height: 18px;&quot;&gt;&lt;div&gt;table (&lt;/div&gt;&lt;div&gt;    id &lt;/div&gt;&lt;div&gt;    source 报表来源&lt;/div&gt;&lt;div&gt;    type 报表枚举&lt;/div&gt;&lt;div&gt;    searchKey 数据检索条件key值&lt;/div&gt;&lt;div&gt;bucketPath 文件地址&lt;/div&gt;&lt;div&gt;部门Id&lt;/div&gt;&lt;div&gt;    管理员&lt;/div&gt;&lt;div&gt;    status&lt;/div&gt;&lt;div&gt;    创建时间&lt;/div&gt;&lt;div&gt;    完成時間&lt;/div&gt;&lt;div&gt;)&lt;/div&gt;&lt;/div&gt;" style="rounded=0;whiteSpace=wrap;html=1;align=left;" parent="1" vertex="1">
                    <mxGeometry x="500" y="280" width="240" height="220" as="geometry"/>
                </mxCell>
                <UserObject label="watch?v=eh5ETIoMzOw" linkTarget="_blank" link="https://www.youtube.com/watch?v=eh5ETIoMzOw" id="25">
                    <mxCell style="fontColor=#0000EE;fontStyle=4;rounded=1;overflow=hidden;spacing=10;" parent="1" vertex="1">
                        <mxGeometry x="30" y="400" width="160" height="40" as="geometry"/>
                    </mxCell>
                </UserObject>
                <mxCell id="26" value="https://cloud.google.com/storage/docs/json_api/v1/buckets" style="text;html=1;strokeColor=none;fillColor=none;align=center;verticalAlign=middle;whiteSpace=wrap;rounded=0;" parent="1" vertex="1">
                    <mxGeometry x="45" y="620" width="365" height="30" as="geometry"/>
                </mxCell>
            </root>
        </mxGraphModel>
    </diagram>
</mxfile>